<svg width="184" height="366" xmlns="http://www.w3.org/2000/svg" xmlns:xlink="http://www.w3.org/1999/xlink" overflow="hidden"><defs><clipPath id="clip0"><rect x="968" y="16" width="184" height="366"/></clipPath><clipPath id="clip1"><rect x="969" y="17" width="182" height="365"/></clipPath><clipPath id="clip2"><rect x="969" y="17" width="182" height="366"/></clipPath><clipPath id="clip3"><rect x="242" y="17" width="1090" height="1129"/></clipPath></defs><g clip-path="url(#clip0)" transform="translate(-968 -16)"><g clip-path="url(#clip1)"><g clip-path="url(#clip2)"><g clip-path="url(#clip3)"><path d="M789.371 1091.03C791.912 1089.04 793.727 1085.95 793.727 1083.05 793.727 1080.33 794.272 1078.15 795.179 1078.15 796.087 1078.15 796.813 1080.14 796.813 1082.69 796.813 1087.4 791.186 1094.48 787.374 1094.48 786.104 1094.48 787.011 1092.85 789.371 1091.03Z" fill="#C55A11" fill-rule="nonzero" fill-opacity="1" transform="matrix(1 0 0 -1.00234 242.481 1145.2)"/><path d="M785.559 1086.86C786.83 1085.59 787.737 1083.23 787.737 1081.41 787.737 1079.6 788.645 1078.15 789.552 1078.15 790.641 1078.15 791.367 1079.6 791.367 1081.41 791.367 1085.04 788.1 1089.04 785.196 1089.04 784.107 1089.04 784.289 1088.13 785.559 1086.86Z" fill="#C55A11" fill-rule="nonzero" fill-opacity="1" transform="matrix(1 0 0 -1.00234 242.481 1145.2)"/><path d="M517.293 1082.69C515.659 1080.69 515.478 1079.24 516.748 1077.97 518.201 1076.51 519.108 1076.7 519.834 1077.97 521.831 1081.05 528.183 1080.33 529.454 1077.06 530.906 1073.43 525.642 1069.07 519.653 1069.07 515.841 1069.07 511.848 1064.53 511.848 1060.18 511.848 1057.27 516.748 1057.82 517.837 1060.72 518.382 1061.99 521.105 1063.81 524.009 1064.35 534.536 1067.08 538.892 1076.33 532.539 1082.5 528.909 1086.13 520.197 1086.32 517.293 1082.69Z" fill="#C55A11" fill-rule="nonzero" fill-opacity="1" transform="matrix(1 0 0 -1.00234 242.481 1145.2)"/><path d="M767.046 1081.41C765.594 1079.05 763.597 1072.34 762.508 1066.53 756.881 1035.49 763.96 1008.81 782.474 991.024L791.367 982.494 791.367 886.295C791.367 794.816 791.549 789.734 794.816 785.741 799.354 780.114 809.881 779.933 815.508 785.559 819.501 789.552 819.501 790.641 820.045 841.826 820.227 870.504 820.409 895.371 820.409 897.186 820.409 898.819 821.135 900.271 822.224 900.271 823.131 900.271 824.039 878.672 824.402 844.912 824.946 790.46 824.946 789.552 828.939 785.559 834.566 779.933 845.093 780.114 849.631 785.741 852.898 789.734 853.08 794.635 853.08 878.854 853.08 932.398 853.806 967.247 854.713 966.703 858.162 964.525 860.884 945.648 861.429 919.511 862.155 891.196 863.062 887.566 870.323 887.566 878.672 887.566 880.306 892.285 880.306 916.788 880.306 960.35 873.045 984.49 857.254 995.018 852.898 997.74 848.36 998.285 826.943 998.285L801.713 998.285 793.909 1006.27C784.107 1016.62 779.751 1029.32 779.933 1047.29 779.933 1054.73 781.022 1064.35 782.111 1068.71 783.926 1075.42 783.926 1077.24 781.385 1081.05 777.755 1086.68 770.494 1086.86 767.046 1081.41Z" fill="#C55A11" fill-rule="nonzero" fill-opacity="1" transform="matrix(1 0 0 -1.00234 242.481 1145.2)"/><path d="M828.939 1077.97C825.854 1072.34 826.217 1067.44 829.484 1072.52 831.48 1075.97 836.926 1073.61 835.655 1069.98 833.658 1065.26 837.47 1067.08 840.011 1072.16 842.552 1077.97 842.915 1082.32 840.374 1077.78 837.833 1073.61 831.48 1075.61 832.569 1080.14 834.021 1085.23 832.751 1084.32 828.939 1077.97Z" fill="#C55A11" fill-rule="nonzero" fill-opacity="1" transform="matrix(1 0 0 -1.00234 242.481 1145.2)"/><path d="M982.857 1079.96C982.312 1078.87 980.86 1078.51 979.953 1079.05 979.045 1079.78 978.319 1078.15 978.319 1075.61 978.319 1069.62 981.223 1067.98 982.675 1073.25 983.583 1076.51 984.127 1076.88 985.579 1074.52 987.213 1072.16 987.757 1072.16 989.391 1075.06 991.206 1078.33 991.387 1078.33 993.929 1075.06 995.199 1073.25 996.47 1072.7 996.47 1073.79 996.47 1074.7 995.199 1077.24 993.565 1079.24 991.569 1081.78 990.48 1082.14 989.754 1080.33 989.028 1078.69 988.302 1078.51 986.487 1079.96 984.853 1081.41 983.764 1081.41 982.857 1079.96Z" fill="#C55A11" fill-rule="nonzero" fill-opacity="1" transform="matrix(1 0 0 -1.00234 242.481 1145.2)"/><path d="M952.908 1076.7C952.908 1071.98 948.007 1070.16 945.829 1074.15 944.377 1076.51 944.014 1075.79 943.833 1070.52 943.833 1066.71 944.74 1063.63 945.648 1063.63 946.737 1063.63 947.463 1064.72 947.463 1066.17 947.463 1069.98 951.638 1070.71 954.179 1067.44 955.994 1065.08 956.357 1065.62 956.538 1071.25 956.538 1074.88 955.812 1078.51 954.723 1079.05 953.816 1079.6 952.908 1078.51 952.908 1076.7Z" fill="#C55A11" fill-rule="nonzero" fill-opacity="1" transform="matrix(1 0 0 -1.00234 242.481 1145.2)"/><path d="M969.425 1075.06C968.336 1073.25 967.429 1072.7 967.429 1073.79 967.429 1074.88 965.432 1075.97 962.891 1075.97 958.172 1075.97 957.627 1074.34 959.987 1068.16 961.439 1064.72 961.439 1064.72 962.891 1068.89 963.98 1072.16 964.525 1072.7 965.795 1070.71 967.247 1068.53 967.973 1068.71 969.97 1071.43 972.329 1074.34 972.511 1074.34 973.6 1071.61 975.233 1067.26 976.504 1069.25 975.233 1074.15 973.963 1079.05 971.966 1079.24 969.425 1075.06Z" fill="#C55A11" fill-rule="nonzero" fill-opacity="1" transform="matrix(1 0 0 -1.00234 242.481 1145.2)"/><path d="M853.08 1069.25C851.083 1065.08 849.994 1061.81 850.902 1061.81 852.898 1061.81 859.432 1074.34 857.98 1075.61 857.436 1076.15 855.258 1073.43 853.08 1069.25Z" fill="#C55A11" fill-rule="nonzero" fill-opacity="1" transform="matrix(1 0 0 -1.00234 242.481 1145.2)"/><path d="M843.097 1071.61C839.467 1067.98 840.374 1064.72 845.093 1064.17 847.09 1063.81 847.453 1064.17 846.182 1064.72 844.367 1065.62 844.73 1066.53 847.453 1068.53 849.631 1069.98 850.902 1071.98 850.357 1072.88 848.724 1075.24 846.545 1074.88 843.097 1071.61Z" fill="#C55A11" fill-rule="nonzero" fill-opacity="1" transform="matrix(1 0 0 -1.00234 242.481 1145.2)"/><path d="M858.525 1067.26C856.347 1063.08 855.076 1059.27 855.621 1058.73 855.984 1058.18 858.162 1061.27 860.34 1065.44 862.518 1069.62 863.789 1073.43 863.244 1073.97 862.881 1074.52 860.703 1071.43 858.525 1067.26Z" fill="#C55A11" fill-rule="nonzero" fill-opacity="1" transform="matrix(1 0 0 -1.00234 242.481 1145.2)"/><path d="M862.155 1062.72C860.34 1060.54 860.34 1059.27 861.973 1057.64 864.515 1055.1 869.96 1058 870.867 1062.54 871.593 1066.35 865.241 1066.53 862.155 1062.72ZM869.415 1061.99C869.415 1059.82 865.785 1057.46 864.515 1058.73 863.244 1060 865.604 1063.63 867.782 1063.63 868.689 1063.63 869.415 1062.9 869.415 1061.99Z" fill="#C55A11" fill-rule="nonzero" fill-opacity="1" transform="matrix(1 0 0 -1.00234 242.481 1145.2)"/><path d="M377.896 1061.45C376.626 1060.18 375.718 1057.64 375.718 1055.64 375.718 1052.37 375.537 1052.37 372.269 1055.28 369.91 1057.46 368.458 1057.82 367.55 1056.37 367.006 1055.46 365.554 1054.91 364.646 1055.46 362.65 1056.91 362.468 1052.74 364.646 1049.29 365.917 1047.29 366.461 1047.65 367.55 1050.74 368.276 1053.46 369.547 1054.19 370.817 1053.1 374.266 1050.56 380.8 1050.92 383.16 1053.83 384.975 1056 384.793 1056.19 381.889 1055.1 378.804 1054.01 378.804 1054.19 380.982 1057.09 384.067 1060.9 381.345 1064.9 377.896 1061.45Z" fill="#C55A11" fill-rule="nonzero" fill-opacity="1" transform="matrix(1 0 0 -1.00234 242.481 1145.2)"/><path d="M748.169 1061.45C744.72 1058 745.991 1045.48 749.803 1045.48 750.71 1045.48 750.347 1047.65 749.258 1050.2 747.624 1053.83 747.624 1055.64 749.44 1058.54 751.981 1062.72 751.255 1064.53 748.169 1061.45Z" fill="#C55A11" fill-rule="nonzero" fill-opacity="1" transform="matrix(1 0 0 -1.00234 242.481 1145.2)"/><path d="M752.707 1058.73C750.71 1056.73 751.255 1049.47 753.614 1048.02 755.066 1047.11 755.248 1048.02 754.522 1050.92 753.977 1053.28 754.34 1056.37 755.429 1057.64 757.426 1060 754.885 1061.09 752.707 1058.73Z" fill="#C55A11" fill-rule="nonzero" fill-opacity="1" transform="matrix(1 0 0 -1.00234 242.481 1145.2)"/><path d="M103.459 1056.91C90.7532 1051.83 83.6744 1038.4 86.9415 1026.06 94.5648 997.74 134.859 1000.46 137.582 1029.32 138.671 1040.03 135.404 1047.65 127.599 1053.46 122.88 1056.91 108.541 1059.09 103.459 1056.91Z" fill="#C55A11" fill-rule="nonzero" fill-opacity="1" transform="matrix(1 0 0 -1.00234 242.481 1145.2)"/><path d="M252.112 1054.01C243.763 1048.38 239.225 1039.31 240.133 1029.69 242.855 1003.55 277.16 996.833 288.958 1020.25 300.937 1043.66 273.893 1068.53 252.112 1054.01Z" fill="#C55A11" fill-rule="nonzero" fill-opacity="1" transform="matrix(1 0 0 -1.00234 242.481 1145.2)"/><path d="M460.118 1056.37C458.122 1055.64 454.129 1052.37 451.225 1049.29 444.146 1041.85 442.694 1027.51 448.139 1018.79 459.574 1000.46 485.529 1001.91 494.06 1021.34 498.053 1030.59 497.509 1037.49 492.064 1046.57 486.255 1056 470.646 1060.9 460.118 1056.37Z" fill="#C55A11" fill-rule="nonzero" fill-opacity="1" transform="matrix(1 0 0 -1.00234 242.481 1145.2)"/><path d="M632.186 1054.55C620.57 1047.47 616.577 1035.67 621.478 1022.79 629.282 1002.64 655.419 999.918 667.399 1018.07 682.282 1040.21 654.875 1068.53 632.186 1054.55Z" fill="#C55A11" fill-rule="nonzero" fill-opacity="1" transform="matrix(1 0 0 -1.00234 242.481 1145.2)"/><path d="M809.881 1055.1C793.727 1047.29 791.186 1025.15 804.98 1012.99 816.597 1002.82 831.662 1003.91 842.189 1015.71 846.727 1020.97 847.634 1023.51 847.634 1031.32 847.634 1052.19 828.395 1064.35 809.881 1055.1Z" fill="#C55A11" fill-rule="nonzero" fill-opacity="1" transform="matrix(1 0 0 -1.00234 242.481 1145.2)"/><path d="M990.117 1054.73C980.679 1049.11 977.774 1044.21 977.048 1034.04 976.504 1026.78 977.23 1023.15 979.953 1018.79 984.853 1010.99 992.295 1006.09 995.199 1008.99 997.559 1011.35 1005.36 1011.53 1008.99 1009.36 1017.16 1004.09 1030.77 1022.97 1028.23 1036.04 1024.78 1054.01 1004.82 1063.99 990.117 1054.73Z" fill="#C55A11" fill-rule="nonzero" fill-opacity="1" transform="matrix(1 0 0 -1.00234 242.481 1145.2)"/><path d="M355.208 1053.46C354.482 1052.74 353.937 1050.2 353.937 1047.84 353.937 1044.57 354.845 1043.48 357.204 1044.02 359.019 1044.39 360.29 1046.2 360.29 1048.92 360.29 1053.28 357.567 1055.64 355.208 1053.46ZM359.382 1049.11C359.382 1047.11 358.656 1045.48 357.567 1045.48 356.66 1045.48 355.752 1047.11 355.752 1049.11 355.752 1051.1 356.66 1052.74 357.567 1052.74 358.656 1052.74 359.382 1051.1 359.382 1049.11Z" fill="#C55A11" fill-rule="nonzero" fill-opacity="1" transform="matrix(1 0 0 -1.00234 242.481 1145.2)"/><path d="M507.31 1052.74C506.584 1051.47 506.766 1049.83 507.673 1048.92 509.851 1046.75 515.841 1048.92 514.933 1051.65 514.026 1054.37 508.762 1055.1 507.31 1052.74Z" fill="#C55A11" fill-rule="nonzero" fill-opacity="1" transform="matrix(1 0 0 -1.00234 242.481 1145.2)"/><path d="M338.872 1047.84C336.513 1045.48 337.602 1041.85 340.869 1041.66 342.684 1041.66 343.047 1041.12 341.776 1040.58 340.506 1040.21 339.417 1038.94 339.417 1038.03 339.417 1037.31 340.687 1036.95 342.139 1037.49 343.591 1038.22 344.862 1039.67 344.862 1041.12 344.862 1042.57 343.591 1043.66 342.139 1043.66 338.872 1043.66 338.509 1046.57 341.776 1047.84 342.865 1048.38 343.047 1048.92 341.958 1048.92 340.869 1049.11 339.417 1048.56 338.872 1047.84Z" fill="#C55A11" fill-rule="nonzero" fill-opacity="1" transform="matrix(1 0 0 -1.00234 242.481 1145.2)"/><path d="M319.451 1046.2C319.451 1044.93 317.636 1043.66 315.458 1043.12 313.098 1042.39 309.65 1040.76 307.653 1039.12 304.023 1036.22 304.023 1036.22 308.198 1037.31 311.283 1038.22 312.191 1037.67 312.191 1034.77 312.191 1032.77 313.098 1030.59 314.006 1030.05 315.095 1029.32 315.639 1031.14 315.458 1034.95 314.732 1042.57 319.996 1043.48 320.903 1036.04 321.629 1030.23 324.896 1029.14 324.896 1034.59 324.896 1038.76 326.711 1039.31 329.978 1036.04 331.431 1034.59 332.157 1034.59 332.157 1035.86 332.157 1038.58 326.893 1042.57 325.441 1041.12 324.715 1040.39 323.081 1041.85 321.811 1044.02 320.54 1046.38 319.633 1047.29 319.451 1046.2Z" fill="#C55A11" fill-rule="nonzero" fill-opacity="1" transform="matrix(1 0 0 -1.00234 242.481 1145.2)"/><path d="M332.338 1043.3C332.338 1042.03 333.064 1039.31 333.972 1037.31 335.424 1034.04 335.605 1034.22 335.605 1038.58 335.787 1041.3 335.061 1044.02 333.972 1044.57 333.064 1045.11 332.157 1044.57 332.338 1043.3Z" fill="#C55A11" fill-rule="nonzero" fill-opacity="1" transform="matrix(1 0 0 -1.00234 242.481 1145.2)"/><path d="M428.899 1035.49C412.382 1027.51 406.574 1020.79 406.574 1010.08 406.574 1003.37 407.482 1001.19 413.108 995.744 416.738 992.295 423.999 987.576 429.444 985.398L439.245 981.223 439.245 886.477C439.245 834.384 439.79 790.278 440.334 788.645 442.149 784.289 451.225 780.296 456.488 781.566 459.029 782.111 462.66 784.833 464.656 787.193 468.105 791.549 468.286 794.816 468.286 846.001 468.286 893.011 468.649 900.271 471.009 900.271 473.368 900.271 473.731 893.011 473.731 846.001 473.731 816.052 474.276 790.278 474.82 788.645 476.454 784.47 485.711 780.296 490.793 781.566 493.334 782.111 496.783 784.289 498.598 786.285 501.683 789.734 501.865 796.087 502.772 879.217 503.499 957.083 504.043 967.247 506.04 959.261 507.31 954.36 508.944 937.117 509.488 921.145 510.033 905.172 511.303 891.014 512.211 889.925 514.752 886.658 521.831 887.021 525.279 890.47 527.639 892.648 528.183 897.912 528.183 918.422 528.183 959.442 521.105 984.127 506.403 994.292 500.957 997.922 498.416 998.285 475.728 998.285 449.773 998.285 440.334 999.918 430.533 1005.91 424.906 1009.36 424.725 1009.72 427.629 1012.99 429.262 1014.8 433.256 1017.34 436.523 1018.43 442.331 1020.61 442.512 1020.97 442.331 1031.32 442.331 1037.13 442.149 1041.85 442.149 1041.85 441.968 1041.85 436.16 1038.94 428.899 1035.49Z" fill="#C55A11" fill-rule="nonzero" fill-opacity="1" transform="matrix(1 0 0 -1.00234 242.481 1145.2)"/><path d="M328.526 1014.44 284.057 998.285 259.009 998.285 233.962 998.285 226.157 990.48C216.174 980.316 211.273 966.158 208.551 939.295 206.373 917.877 207.462 894.1 210.729 890.107 213.088 887.203 219.26 886.84 223.253 889.381 225.431 890.651 226.157 897.367 227.246 922.415 227.79 940.747 229.424 956.901 230.876 961.076 232.873 967.429 233.417 957.083 234.143 879.217 235.051 794.998 235.232 789.734 238.499 786.104 243.037 781.022 247.212 779.933 253.201 782.292 263.003 786.104 263.003 786.104 263.184 845.456 263.184 893.011 263.547 900.271 265.907 900.271 268.266 900.271 268.629 893.011 268.629 846.001L268.629 791.549 272.804 786.648C278.794 779.933 287.506 779.933 293.496 786.648L297.67 791.549 297.67 887.384 297.67 983.22 309.105 987.394C370.636 1009.72 379.711 1013.35 381.163 1017.16 381.889 1019.16 381.889 1022.43 380.982 1024.06 376.989 1031.68 374.266 1031.14 328.526 1014.44Z" fill="#C55A11" fill-rule="nonzero" fill-opacity="1" transform="matrix(1 0 0 -1.00234 242.481 1145.2)"/><path d="M996.47 1006.45C995.199 1005 991.932 997.377 989.209 989.572 983.946 974.689 980.316 966.703 979.227 967.792 978.682 968.155 980.316 973.418 982.857 979.227 985.216 985.216 987.576 992.113 988.302 994.655L989.391 999.192 974.689 998.648C956.175 997.922 954.905 996.107 958.172 976.141 961.62 954.723 968.881 943.833 979.408 943.833 987.939 943.833 996.833 955.994 1005.54 979.953 1011.35 995.744 1012.26 1003.55 1008.81 1007 1005.73 1010.08 999.192 1009.72 996.47 1006.45Z" fill="#C55A11" fill-rule="nonzero" fill-opacity="1" transform="matrix(1 0 0 -1.00234 242.481 1145.2)"/><path d="M616.032 997.559C606.957 995.381 593.163 981.586 590.258 971.785 584.995 953.634 589.714 931.853 604.779 906.987L613.491 892.466 613.491 842.189C613.491 794.816 613.673 791.549 617.121 787.193 619.118 784.833 622.748 782.111 625.289 781.566 630.553 780.296 639.628 784.289 641.443 788.645 641.988 790.278 642.532 816.052 642.532 845.819 642.532 891.74 642.895 900.09 645.255 900.816 648.704 902.268 648.885 902.086 655.056 878.854L660.683 858.706 652.697 842.371C644.892 826.398 644.71 825.491 644.71 808.066 644.529 798.265 644.347 789.008 643.984 787.737 643.258 784.289 650.337 783.2 655.238 785.922 660.32 788.645 689.724 849.631 689.724 857.436 689.724 860.521 686.82 873.771 683.371 886.658 677.382 909.165 677.018 911.525 677.2 940.203 677.2 968.155 677.382 969.788 679.923 963.072 683.371 953.634 686.275 920.418 685.005 905.898 683.916 895.371 684.279 893.556 687.546 890.651 689.542 888.836 693.173 887.566 695.351 887.929 703.155 889.018 704.607 895.008 703.518 924.775 702.248 961.983 697.166 979.771 684.279 991.932L678.652 997.377 650.7 998.285C635.272 998.829 619.663 998.466 616.032 997.559ZM613.31 952.545 613.128 930.22 609.861 940.203C607.865 945.648 606.413 952.364 606.413 955.086 606.231 959.805 611.132 974.689 612.765 974.689 613.128 974.689 613.491 964.706 613.31 952.545Z" fill="#C55A11" fill-rule="nonzero" fill-opacity="1" transform="matrix(1 0 0 -1.00234 242.481 1145.2)"/><path d="M76.7772 994.836C73.6916 992.839 68.9724 987.757 66.6128 983.401 58.082 968.881 55.9039 957.809 54.9964 924.593 54.0889 897.186 54.4519 893.374 57.1745 890.651 60.6231 887.021 67.7019 886.658 70.4244 889.925 71.332 891.014 72.6025 904.809 73.147 920.237 73.8731 945.648 76.9587 967.429 79.6813 967.429 80.2258 967.429 80.7703 927.497 80.7703 878.491L80.7703 789.734 84.7634 785.559C90.3901 779.933 100.918 780.114 105.455 785.741 108.722 789.734 108.904 793.909 108.904 845.093 108.904 893.011 109.267 900.271 111.626 900.271 113.986 900.271 114.349 893.193 114.349 847.271 114.349 789.734 114.893 787.011 124.15 782.655 129.959 779.751 138.671 782.292 141.575 787.919 142.664 789.915 143.39 826.398 143.39 879.398 143.39 932.579 144.116 967.247 145.024 966.703 148.472 964.525 151.013 945.829 151.739 919.692 152.284 891.377 153.373 887.566 160.633 887.566 168.982 887.566 170.616 892.466 170.616 915.881 170.434 959.079 162.993 984.672 147.565 994.836 143.208 997.74 138.671 998.285 112.534 998.285 86.034 998.285 81.8593 997.922 76.7772 994.836Z" fill="#C55A11" fill-rule="nonzero" fill-opacity="1" transform="matrix(1 0 0 -1.00234 242.481 1145.2)"/><path d="M1012.99 994.292C1012.26 991.932 1009.36 983.764 1006.63 976.141 997.74 951.456 987.394 940.203 975.596 942.381L971.059 943.288 971.059 867.237C971.059 821.135 971.785 789.734 972.874 787.737 975.233 783.2 984.672 780.296 989.935 782.292 999.918 785.922 1000.1 787.737 1000.1 846.182 1000.1 893.011 1000.46 900.271 1002.82 900.271 1005.18 900.271 1005.54 893.011 1005.54 845.638 1005.54 814.237 1006.27 789.734 1007.36 787.919 1010.26 782.292 1018.98 779.751 1024.78 782.655 1034.4 787.193 1034.59 788.645 1034.59 862.699L1034.59 931.309 1026.78 925.682C1016.98 918.785 1004.27 914.792 991.569 914.792 980.679 914.792 974.689 918.966 974.689 926.59 974.689 934.031 980.679 938.388 990.843 938.388 1007.18 938.388 1015.89 944.014 1022.97 959.261 1027.69 969.425 1028.96 967.429 1024.42 956.901 1018.61 942.925 1009.54 937.117 991.206 936.028 981.042 935.302 976.504 932.035 976.504 925.501 976.504 920.963 983.401 916.607 990.48 916.607 1024.42 916.607 1046.75 941.11 1047.84 979.771 1048.38 997.014 1046.93 998.285 1028.96 998.285 1015.71 998.285 1014.44 997.922 1012.99 994.292Z" fill="#C55A11" fill-rule="nonzero" fill-opacity="1" transform="matrix(1 0 0 -1.00234 242.481 1145.2)"/><path d="M803.71 737.46C802.258 735.645 792.82 713.501 783.018 688.272L765.049 642.169 749.621 634.365 734.011 626.56 685.368 641.08C654.33 650.337 635.091 655.056 632.368 654.512 627.467 653.241 624.926 646.344 627.649 641.262 628.919 638.902 642.532 634.183 677.926 623.656L726.57 609.135 739.094 582.817 751.618 556.498 751.436 496.964C751.436 434.345 751.981 428.718 759.604 425.814 765.775 423.454 772.672 424.725 776.484 428.899 780.477 433.074 780.477 434.163 780.477 486.618L780.477 540.163 788.282 543.974 796.087 547.786 821.316 514.026C867.6 452.677 865.059 455.581 872.864 455.581 877.583 455.581 880.85 456.851 883.573 459.755 891.559 468.286 889.925 471.372 852.172 521.831 818.956 566.118 815.871 571.019 800.443 602.419 791.549 620.752 784.107 636.543 784.107 637.632 784.107 638.721 792.094 659.594 801.713 684.097 811.333 708.601 819.138 730.2 818.956 732.015 818.412 740.183 808.974 743.45 803.71 737.46Z" fill="#C55A11" fill-rule="nonzero" fill-opacity="1" transform="matrix(1 0 0 -1.00234 242.481 1145.2)"/><path d="M144.842 734.375C141.212 731.652 140.486 726.933 143.39 725.118 144.479 724.573 145.205 725.481 145.205 727.477 145.205 732.559 147.202 733.648 149.924 730.018 151.195 728.385 152.465 727.84 152.465 728.929 152.465 729.837 151.376 732.196 150.287 733.83 148.291 736.19 147.383 736.371 144.842 734.375Z" fill="#C55A11" fill-rule="nonzero" fill-opacity="1" transform="matrix(1 0 0 -1.00234 242.481 1145.2)"/><path d="M135.767 728.748C135.222 726.207 135.404 723.666 136.13 723.303 136.856 722.758 137.945 724.936 138.308 727.84 139.215 734.375 136.856 735.101 135.767 728.748Z" fill="#C55A11" fill-rule="nonzero" fill-opacity="1" transform="matrix(1 0 0 -1.00234 242.481 1145.2)"/><path d="M736.371 732.196C734.193 730.018 734.919 724.755 737.642 722.577 741.09 719.672 745.628 725.118 743.087 729.292 740.909 732.741 738.186 733.83 736.371 732.196ZM740.546 726.751C740.546 725.299 739.82 724.573 738.731 725.118 737.823 725.662 736.916 726.933 736.916 728.022 736.916 728.929 737.823 729.655 738.731 729.655 739.82 729.655 740.546 728.385 740.546 726.751Z" fill="#C55A11" fill-rule="nonzero" fill-opacity="1" transform="matrix(1 0 0 -1.00234 242.481 1145.2)"/><path d="M750.529 731.47C751.073 730.563 751.981 729.655 752.525 729.655 752.888 729.655 753.251 730.563 753.251 731.47 753.251 732.559 752.344 733.285 751.255 733.285 750.347 733.285 749.984 732.559 750.529 731.47Z" fill="#C55A11" fill-rule="nonzero" fill-opacity="1" transform="matrix(1 0 0 -1.00234 242.481 1145.2)"/><path d="M130.685 728.203C130.685 726.025 129.959 724.21 128.869 724.21 127.962 724.21 127.054 725.662 127.054 727.296 127.054 729.655 126.51 729.837 124.876 728.203 123.606 726.933 121.246 726.025 119.613 726.025 115.438 726.025 113.804 723.303 115.257 718.765 117.072 713.138 121.609 714.409 122.88 720.762L123.969 726.57 127.236 722.214 130.503 717.857 132.5 723.121C133.77 726.751 133.952 728.929 132.5 730.381 131.229 731.652 130.685 730.926 130.685 728.203ZM121.609 721.669C121.609 720.217 120.883 718.402 119.794 717.857 118.887 717.313 117.979 718.402 117.979 720.398 117.979 722.577 118.887 724.21 119.794 724.21 120.883 724.21 121.609 723.121 121.609 721.669Z" fill="#C55A11" fill-rule="nonzero" fill-opacity="1" transform="matrix(1 0 0 -1.00234 242.481 1145.2)"/><path d="M310.557 730.2C310.557 729.292 311.283 727.114 312.191 725.118 313.643 721.851 313.824 722.032 313.824 726.57 314.006 729.292 313.28 731.47 312.191 731.47 311.283 731.47 310.376 730.926 310.557 730.2Z" fill="#C55A11" fill-rule="nonzero" fill-opacity="1" transform="matrix(1 0 0 -1.00234 242.481 1145.2)"/><path d="M107.089 726.207C107.089 724.21 106.363 722.032 105.274 721.488 102.37 719.672 103.096 711.505 106.181 711.505 107.633 711.505 108.904 712.231 108.904 713.32 108.904 714.227 110.356 714.59 112.171 713.864 114.712 712.957 114.893 713.32 113.078 715.316 111.808 716.587 110.719 719.854 110.719 722.577 110.719 725.299 109.993 728.203 108.904 728.748 107.996 729.292 107.089 728.203 107.089 726.207ZM107.27 715.679C105.818 712.957 105.455 712.957 105.274 715.316 105.274 718.402 107.089 721.125 108.541 719.854 108.904 719.31 108.359 717.494 107.27 715.679Z" fill="#C55A11" fill-rule="nonzero" fill-opacity="1" transform="matrix(1 0 0 -1.00234 242.481 1145.2)"/><path d="M304.931 727.477C304.931 726.207 305.838 723.847 306.746 722.395 308.198 720.217 308.561 720.398 308.561 723.666 308.561 725.844 307.835 728.203 306.746 728.748 305.838 729.292 304.931 728.748 304.931 727.477Z" fill="#C55A11" fill-rule="nonzero" fill-opacity="1" transform="matrix(1 0 0 -1.00234 242.481 1145.2)"/><path d="M299.485 723.303C299.485 720.762 300.211 718.765 301.119 718.765 301.845 718.765 302.208 720.762 301.663 723.303 301.3 725.844 300.574 727.84 300.211 727.84 299.848 727.84 299.485 725.844 299.485 723.303Z" fill="#C55A11" fill-rule="nonzero" fill-opacity="1" transform="matrix(1 0 0 -1.00234 242.481 1145.2)"/><path d="M726.751 723.303C725.299 719.491 727.114 715.135 730.381 715.135 733.467 715.135 735.464 719.491 734.011 723.303 733.285 724.755 731.652 726.025 730.381 726.025 728.929 726.025 727.296 724.755 726.751 723.303ZM731.47 720.398C731.47 718.402 730.744 717.313 729.655 717.857 728.748 718.402 727.84 720.217 727.84 721.669 727.84 723.121 728.748 724.21 729.655 724.21 730.744 724.21 731.47 722.577 731.47 720.398Z" fill="#C55A11" fill-rule="nonzero" fill-opacity="1" transform="matrix(1 0 0 -1.00234 242.481 1145.2)"/><path d="M292.77 719.31C292.044 717.676 292.588 715.861 293.677 715.498 294.948 715.135 295.855 714.046 295.855 712.957 295.855 711.868 294.766 711.505 293.314 712.049 292.044 712.594 290.047 712.231 288.958 711.142 287.869 710.053 287.506 711.142 288.232 714.409 288.958 718.039 288.414 718.946 286.598 718.402 283.513 717.313 282.242 709.871 284.602 707.512 285.691 706.423 287.143 706.604 288.777 708.419 290.047 709.871 292.588 710.597 294.222 710.234 298.578 708.964 300.756 713.32 297.126 716.042 294.948 717.676 294.585 718.583 296.218 720.217 297.852 721.851 297.852 722.395 296.218 722.395 294.948 722.395 293.314 720.943 292.77 719.31Z" fill="#C55A11" fill-rule="nonzero" fill-opacity="1" transform="matrix(1 0 0 -1.00234 242.481 1145.2)"/><path d="M277.705 716.95C276.253 714.227 274.619 713.501 271.715 714.227L267.722 715.316 271.896 712.231C274.075 710.597 275.89 708.056 275.89 706.786 275.89 705.333 276.797 704.244 277.886 704.244 278.975 704.244 279.338 705.697 278.612 707.875 278.068 709.69 278.431 713.138 279.52 715.135 280.79 717.313 281.153 719.491 280.79 720.036 280.246 720.398 278.794 719.128 277.705 716.95Z" fill="#C55A11" fill-rule="nonzero" fill-opacity="1" transform="matrix(1 0 0 -1.00234 242.481 1145.2)"/><path d="M718.22 719.491C716.042 717.313 716.768 712.049 719.491 709.871 722.94 706.967 727.477 712.412 724.936 716.587 722.758 720.036 720.036 721.125 718.22 719.491ZM722.395 714.046C722.395 712.594 721.669 711.868 720.58 712.412 719.672 712.957 718.765 714.227 718.765 715.316 718.765 716.224 719.672 716.95 720.58 716.95 721.669 716.95 722.395 715.679 722.395 714.046Z" fill="#C55A11" fill-rule="nonzero" fill-opacity="1" transform="matrix(1 0 0 -1.00234 242.481 1145.2)"/><path d="M307.653 716.95C307.109 716.042 307.472 715.135 308.379 715.135 309.468 715.135 310.376 716.042 310.376 716.95 310.376 718.039 310.013 718.765 309.65 718.765 309.105 718.765 308.198 718.039 307.653 716.95Z" fill="#C55A11" fill-rule="nonzero" fill-opacity="1" transform="matrix(1 0 0 -1.00234 242.481 1145.2)"/><path d="M71.5135 708.238C72.2395 700.433 73.5101 697.347 75.3251 698.981 75.6881 699.525 74.7806 703.518 73.3285 707.875L70.7875 716.042 71.5135 708.238Z" fill="#C55A11" fill-rule="nonzero" fill-opacity="1" transform="matrix(1 0 0 -1.00234 242.481 1145.2)"/><path d="M87.123 712.231C87.123 709.871 86.5785 709.69 84.5819 711.323 82.7669 712.775 81.6778 712.957 80.7703 711.505 80.2258 710.416 78.7737 710.234 77.6847 710.779 76.2327 711.686 76.0511 710.597 76.7772 707.693 77.5032 705.333 78.0477 702.611 78.0477 701.885 78.0477 700.977 78.9552 700.977 79.8628 701.522 80.9518 702.066 81.6778 704.426 81.6778 706.604 81.6778 710.234 81.6778 710.234 84.4004 706.786 86.9415 703.337 87.123 703.337 88.2121 707.512 89.3011 711.323 89.4826 711.323 91.8422 708.419 94.7463 704.607 95.1093 706.604 92.5682 711.686 90.2086 715.861 87.123 716.224 87.123 712.231Z" fill="#C55A11" fill-rule="nonzero" fill-opacity="1" transform="matrix(1 0 0 -1.00234 242.481 1145.2)"/><path d="M706.423 707.512 710.416 699.707 711.505 705.152C712.049 708.782 712.957 709.871 713.864 708.419 714.772 707.149 716.224 706.06 717.494 706.06 718.583 706.06 717.676 707.875 715.498 710.234 712.049 713.501 711.142 713.864 709.69 711.505 708.238 709.327 707.875 709.327 706.786 712.049 706.241 713.683 704.971 715.135 704.063 715.135 703.155 715.135 704.244 711.686 706.423 707.512Z" fill="#C55A11" fill-rule="nonzero" fill-opacity="1" transform="matrix(1 0 0 -1.00234 242.481 1145.2)"/><path d="M938.751 713.864C937.48 713.501 935.665 711.323 934.576 709.327 932.398 705.152 935.302 700.251 939.477 701.885 940.929 702.429 942.018 701.885 942.018 700.614 942.018 699.525 942.925 699.162 943.833 699.707 944.922 700.251 945.648 702.429 945.648 704.426 945.648 707.512 945.103 707.693 942.018 705.697 940.203 704.426 937.843 704.063 937.117 704.789 934.939 707.149 939.477 712.412 943.651 712.231 945.648 712.231 947.463 712.775 947.463 713.683 947.463 715.316 942.562 715.498 938.751 713.864Z" fill="#C55A11" fill-rule="nonzero" fill-opacity="1" transform="matrix(1 0 0 -1.00234 242.481 1145.2)"/><path d="M965.251 709.871C962.346 707.149 960.168 703.7 960.168 702.248 960.168 700.433 961.802 699.344 965.251 699.344 969.788 699.344 970.151 700.07 970.514 707.33 970.696 711.686 970.696 715.135 970.514 714.953 970.333 714.772 967.973 712.594 965.251 709.871ZM966.521 704.244C965.977 703.337 964.525 702.429 963.617 702.429 962.528 702.429 962.346 703.337 962.891 704.244 963.435 705.333 964.888 706.06 965.795 706.06 966.884 706.06 967.066 705.333 966.521 704.244Z" fill="#C55A11" fill-rule="nonzero" fill-opacity="1" transform="matrix(1 0 0 -1.00234 242.481 1145.2)"/><path d="M1003 711.868C1001.37 708.964 999.555 694.262 1001.19 695.714 1001.91 696.44 1002.82 698.255 1003 699.525 1003.19 700.796 1003.91 704.607 1004.64 707.693 1005.73 713.138 1005 715.135 1003 711.868Z" fill="#C55A11" fill-rule="nonzero" fill-opacity="1" transform="matrix(1 0 0 -1.00234 242.481 1145.2)"/><path d="M217.082 708.601C215.448 707.149 214.177 704.244 214.177 702.429 214.177 700.433 227.609 686.82 247.393 668.669 265.544 651.971 282.424 636.361 284.965 634.183L289.321 629.827 288.958 535.262C288.414 437.067 288.958 430.351 295.855 426.54 301.482 423.454 310.194 424.362 313.643 428.355 316.365 431.622 316.91 438.338 317.636 487.707 318.362 529.998 319.088 543.43 320.903 544.156 322.537 544.7 323.081 533.266 323.081 490.975 323.081 434.708 323.807 428.718 331.249 425.814 337.42 423.454 344.317 424.725 348.129 428.899L352.122 433.074 352.122 531.269 352.122 629.464 389.15 663.224C409.478 681.919 426.721 698.436 427.266 700.07 427.992 701.703 427.084 704.789 425.632 707.149 420.006 715.861 416.194 713.501 376.263 677.018L338.691 642.532 321.085 642.532 303.66 642.532 265.907 677.018C227.246 712.231 223.253 714.953 217.082 708.601Z" fill="#C55A11" fill-rule="nonzero" fill-opacity="1" transform="matrix(1 0 0 -1.00234 242.481 1145.2)"/><path d="M502.772 707.875C496.238 701.34 498.961 695.714 507.31 697.71 512.574 698.981 515.478 707.33 511.666 709.871 508.036 712.231 506.766 711.868 502.772 707.875ZM511.848 705.152C511.848 701.522 504.769 697.892 502.409 700.251 501.139 701.522 501.865 703.337 504.406 705.878 508.399 709.871 511.848 709.508 511.848 705.152Z" fill="#C55A11" fill-rule="nonzero" fill-opacity="1" transform="matrix(1 0 0 -1.00234 242.481 1145.2)"/><path d="M951.275 709.145C948.007 705.878 948.915 700.614 952.727 700.614 955.812 700.614 958.353 703.881 958.353 707.875 958.353 710.416 953.453 711.323 951.275 709.145ZM955.449 705.152C954.36 702.248 951.093 701.34 951.093 703.881 951.093 705.878 953.09 707.875 954.905 707.875 955.812 707.875 955.994 706.604 955.449 705.152Z" fill="#C55A11" fill-rule="nonzero" fill-opacity="1" transform="matrix(1 0 0 -1.00234 242.481 1145.2)"/><path d="M515.841 702.974C513.663 695.714 514.57 692.265 517.474 697.529 519.834 701.522 522.194 701.522 523.283 697.529 523.827 695.532 524.19 696.44 524.372 699.525 524.553 703.518 523.827 704.426 521.649 703.518 519.471 702.792 519.108 703.337 520.016 706.06 520.742 708.056 520.379 709.69 519.471 709.69 518.564 709.69 516.93 706.604 515.841 702.974Z" fill="#C55A11" fill-rule="nonzero" fill-opacity="1" transform="matrix(1 0 0 -1.00234 242.481 1145.2)"/><path d="M51.3663 705.697C46.2841 699.162 47.0101 691.539 52.6368 691.539 54.4519 691.539 56.8115 692.81 58.082 694.262 59.5341 695.895 59.7156 696.984 58.445 696.984 57.356 696.984 55.9039 696.258 55.3594 695.169 53.5444 692.084 50.8218 693.173 50.8218 696.803 50.8218 702.792 52.8183 705.878 55.7224 704.789 57.719 704.063 58.2635 704.426 57.356 705.697 55.7224 708.419 53.5444 708.419 51.3663 705.697Z" fill="#C55A11" fill-rule="nonzero" fill-opacity="1" transform="matrix(1 0 0 -1.00234 242.481 1145.2)"/><path d="M61.8937 703.881C59.5341 697.529 63.1642 691.902 66.2498 696.984 66.9758 698.073 68.2464 698.436 69.1539 697.892 71.1505 696.44 71.1505 697.347 68.9724 703.155 66.7943 708.964 63.8902 709.145 61.8937 703.881ZM66.0683 701.522C65.3423 700.07 64.6162 698.799 64.2532 698.799 63.8902 698.799 63.5272 700.07 63.5272 701.522 63.5272 702.974 64.2532 704.244 65.3423 704.244 66.2498 704.244 66.6128 702.974 66.0683 701.522Z" fill="#C55A11" fill-rule="nonzero" fill-opacity="1" transform="matrix(1 0 0 -1.00234 242.481 1145.2)"/><path d="M988.483 704.244C985.942 694.988 985.761 691.539 987.394 691.539 988.302 691.539 989.209 692.628 989.209 693.899 989.209 695.169 991.024 696.984 993.384 697.892 995.562 698.981 997.559 701.522 997.922 703.518 998.466 706.786 997.559 707.512 993.747 707.149 991.206 707.149 988.846 705.697 988.483 704.244ZM994.655 701.522C993.384 699.888 991.932 699.162 991.387 699.707 990.843 700.07 991.569 701.703 992.839 703.337 994.11 704.971 995.562 705.697 996.107 705.152 996.651 704.789 995.925 703.155 994.655 701.522Z" fill="#C55A11" fill-rule="nonzero" fill-opacity="1" transform="matrix(1 0 0 -1.00234 242.481 1145.2)"/><path d="M1006.45 702.248C1004.82 697.166 1006.09 696.258 1016.07 695.895 1023.88 695.714 1024.78 696.077 1025.15 699.888 1025.51 705.697 1021.88 707.33 1018.43 703.155 1015.16 699.162 1009.18 696.258 1009.18 698.618 1009.18 699.525 1010.45 700.614 1011.9 701.34 1015.71 702.792 1015.35 706.06 1011.17 706.06 1009.18 706.06 1007 704.426 1006.45 702.248ZM1020.43 698.436C1019.16 697.166 1018.25 696.984 1018.25 698.073 1018.25 700.614 1020.43 702.792 1021.7 701.522 1022.06 700.977 1021.52 699.525 1020.43 698.436Z" fill="#C55A11" fill-rule="nonzero" fill-opacity="1" transform="matrix(1 0 0 -1.00234 242.481 1145.2)"/><path d="M1028.96 702.974C1026.96 700.614 1026.96 699.888 1028.78 699.344 1029.87 698.799 1030.96 697.71 1030.96 696.803 1030.96 695.714 1030.23 695.532 1029.14 696.077 1028.23 696.621 1027.33 696.44 1027.33 695.351 1027.33 694.443 1030.77 693.717 1034.95 693.899 1041.66 694.262 1042.57 694.806 1043.12 699.344 1043.66 702.974 1042.94 704.244 1040.76 704.244 1039.12 704.244 1037.49 702.611 1036.95 700.614 1036.22 697.71 1035.49 697.347 1033.32 698.981 1031.5 700.614 1031.32 701.522 1032.95 702.429 1034.22 703.337 1034.22 704.244 1033.13 704.971 1032.23 705.515 1030.23 704.607 1028.96 702.974Z" fill="#C55A11" fill-rule="nonzero" fill-opacity="1" transform="matrix(1 0 0 -1.00234 242.481 1145.2)"/><path d="M692.084 699.525C690.813 696.258 693.717 690.268 696.258 691.176 698.799 691.721 698.255 701.159 695.714 701.885 694.443 702.429 692.81 701.34 692.084 699.525ZM696.984 696.077C696.984 694.625 696.258 693.354 695.169 693.354 694.262 693.354 693.354 694.625 693.354 696.077 693.354 697.529 694.262 698.799 695.169 698.799 696.258 698.799 696.984 697.529 696.984 696.077Z" fill="#C55A11" fill-rule="nonzero" fill-opacity="1" transform="matrix(1 0 0 -1.00234 242.481 1145.2)"/><path d="M973.963 699.707C973.418 698.255 973.781 696.984 974.689 696.984 977.048 696.984 978.682 700.251 976.685 701.34 975.778 701.885 974.689 701.159 973.963 699.707Z" fill="#C55A11" fill-rule="nonzero" fill-opacity="1" transform="matrix(1 0 0 -1.00234 242.481 1145.2)"/><path d="M107.996 698.436C90.9347 688.998 88.2121 668.125 102.37 655.601 110.9 648.159 119.431 646.888 129.777 651.426 155.551 662.861 147.928 700.796 119.794 700.614 115.257 700.614 109.993 699.525 107.996 698.436Z" fill="#C55A11" fill-rule="nonzero" fill-opacity="1" transform="matrix(1 0 0 -1.00234 242.481 1145.2)"/><path d="M307.29 696.984C298.759 691.902 295.129 685.186 295.129 675.022 295.129 655.056 315.639 642.895 333.609 652.334 350.307 661.046 351.215 687.364 335.242 696.984 327.619 701.703 314.913 701.703 307.29 696.984Z" fill="#C55A11" fill-rule="nonzero" fill-opacity="1" transform="matrix(1 0 0 -1.00234 242.481 1145.2)"/><path d="M535.444 698.981C535.444 698.073 534.899 695.714 534.173 693.899 533.084 690.813 533.084 690.813 536.714 693.899 538.711 695.532 540.707 696.984 541.433 696.984 541.978 696.984 542.885 695.532 543.43 693.899 543.974 691.902 544.156 692.265 543.974 694.988 543.793 698.073 542.341 699.525 539.618 699.888 537.259 700.251 535.444 699.888 535.444 698.981Z" fill="#C55A11" fill-rule="nonzero" fill-opacity="1" transform="matrix(1 0 0 -1.00234 242.481 1145.2)"/><path d="M548.331 695.351C546.878 692.81 547.06 691.358 548.875 689.905 552.142 687.183 558.313 691.721 556.68 695.895 555.046 699.888 550.509 699.525 548.331 695.351ZM555.409 695.351C555.409 693.173 551.779 690.813 550.509 692.084 549.238 693.354 551.598 696.984 553.776 696.984 554.683 696.984 555.409 696.258 555.409 695.351Z" fill="#C55A11" fill-rule="nonzero" fill-opacity="1" transform="matrix(1 0 0 -1.00234 242.481 1145.2)"/><path d="M675.566 693.354C679.015 683.371 679.197 681.556 676.837 683.916 673.207 687.364 669.94 686.638 671.029 682.464 672.299 677.926 670.121 677.745 666.854 681.919 665.584 683.734 664.132 684.642 663.587 684.097 663.043 683.553 665.039 680.83 667.943 677.926L673.388 672.662 673.388 677.563C673.388 682.101 673.751 682.464 677.2 680.467 681.012 678.471 681.193 678.652 680.104 685.186 679.378 688.998 677.926 692.991 676.837 694.08 675.203 695.532 674.84 695.351 675.566 693.354Z" fill="#C55A11" fill-rule="nonzero" fill-opacity="1" transform="matrix(1 0 0 -1.00234 242.481 1145.2)"/><path d="M682.827 690.268C683.19 687.183 684.46 685.186 686.094 685.186 687.727 685.186 688.998 687.183 689.361 690.268 689.905 694.262 689.179 695.169 686.094 695.169 683.008 695.169 682.282 694.262 682.827 690.268ZM687.909 689.542C687.909 687.546 687.183 686.457 686.094 687.001 685.186 687.546 684.279 689.361 684.279 690.813 684.279 692.265 685.186 693.354 686.094 693.354 687.183 693.354 687.909 691.721 687.909 689.542Z" fill="#C55A11" fill-rule="nonzero" fill-opacity="1" transform="matrix(1 0 0 -1.00234 242.481 1145.2)"/><path d="M720.943 686.094C712.957 681.193 707.33 668.669 708.964 659.594 709.69 655.964 712.594 650.337 715.498 646.888 732.015 628.193 760.511 639.265 760.511 664.495 760.511 684.279 738.005 696.44 720.943 686.094Z" fill="#C55A11" fill-rule="nonzero" fill-opacity="1" transform="matrix(1 0 0 -1.00234 242.481 1145.2)"/><path d="M975.052 680.649C962.709 673.025 959.079 654.33 967.792 643.258 971.966 637.995 973.418 638.721 976.504 648.522 979.227 657.234 982.857 660.683 989.028 660.683 995.381 660.683 999.011 656.508 1002.1 646.707 1003.37 642.351 1005 638.902 1005.91 638.902 1006.63 638.902 1008.99 641.625 1010.99 644.892 1015.35 651.971 1015.71 664.132 1011.9 671.755 1005.54 683.734 987.394 688.09 975.052 680.649Z" fill="#C55A11" fill-rule="nonzero" fill-opacity="1" transform="matrix(1 0 0 -1.00234 242.481 1145.2)"/><path d="M506.947 673.388C482.625 660.864 491.701 624.382 519.108 624.382 526.368 624.382 533.81 628.375 539.8 635.272 543.43 639.628 544.519 642.895 544.519 649.43 544.519 670.303 525.098 682.645 506.947 673.388Z" fill="#C55A11" fill-rule="nonzero" fill-opacity="1" transform="matrix(1 0 0 -1.00234 242.481 1145.2)"/><path d="M72.6025 673.388C72.6025 672.299 73.8731 671.573 75.3251 671.573 76.7772 671.573 79.6813 668.851 81.6778 665.765 84.7634 660.864 85.308 660.501 85.308 663.587 85.308 667.58 81.1333 672.118 75.8696 673.933 74.0546 674.659 72.6025 674.296 72.6025 673.388Z" fill="#C55A11" fill-rule="nonzero" fill-opacity="1" transform="matrix(1 0 0 -1.00234 242.481 1145.2)"/><path d="M43.9245 671.21C41.3834 668.669 41.0204 657.779 43.5615 656.145 44.6506 655.419 44.8321 657.234 44.2875 660.683 43.38 664.676 43.9245 667.217 46.2841 669.758 49.7327 673.57 47.5547 674.84 43.9245 671.21Z" fill="#C55A11" fill-rule="nonzero" fill-opacity="1" transform="matrix(1 0 0 -1.00234 242.481 1145.2)"/><path d="M156.64 671.936C153.917 670.121 150.287 660.683 152.284 660.683 153.191 660.683 154.462 662.68 155.006 665.039 155.551 667.58 158.092 670.121 160.996 671.21 164.989 672.662 165.352 673.207 162.448 673.207 160.452 673.207 157.91 672.662 156.64 671.936Z" fill="#C55A11" fill-rule="nonzero" fill-opacity="1" transform="matrix(1 0 0 -1.00234 242.481 1145.2)"/><path d="M190.582 670.666C191.852 669.032 192.941 664.676 192.76 661.046 192.578 656.145 192.941 655.056 194.212 657.053 197.479 662.317 194.393 673.388 189.674 673.388 188.948 673.388 189.311 672.118 190.582 670.666Z" fill="#C55A11" fill-rule="nonzero" fill-opacity="1" transform="matrix(1 0 0 -1.00234 242.481 1145.2)"/><path d="M467.197 658.868C441.786 643.258 437.249 639.084 438.701 633.457 440.153 627.83 443.964 626.56 466.108 624.2L486.437 622.022 486.437 584.45 486.437 546.878 473.731 494.242C466.834 465.201 461.026 439.79 461.026 437.793 461.026 431.44 467.923 424.725 474.639 424.725 486.618 424.725 487.344 426.358 501.502 485.529 513.481 534.899 514.933 539.981 518.564 540.526 521.105 540.889 522.738 539.981 523.464 537.803 523.827 535.988 529.817 511.666 536.351 483.714 549.42 429.625 551.416 424.725 561.036 424.725 568.478 424.725 571.563 426.358 574.649 432.167 577.19 437.249 576.464 440.697 563.577 494.605L549.964 551.779 550.327 586.81 550.872 621.659 571.926 624.382C594.615 627.286 599.515 629.645 598.608 636.906 598.245 640.717 593.344 644.347 572.652 657.416 544.882 674.84 533.266 678.471 541.978 667.036 543.43 665.039 545.426 660.501 546.516 656.69 547.786 651.971 549.964 648.885 553.594 647.07 560.854 643.44 560.491 640.717 552.868 640.717 547.968 640.717 545.789 639.447 541.978 634.365 535.625 626.015 528.546 622.567 518.201 622.567 508.036 622.567 500.231 626.741 495.149 634.909 492.064 639.81 490.612 640.717 484.44 640.717 475.728 640.717 475.547 642.532 483.533 646.888 488.07 649.248 490.067 651.789 490.793 656.145 491.519 659.412 493.516 664.132 495.512 666.673 500.231 672.481 500.05 673.388 494.968 673.388 492.608 673.388 480.266 666.854 467.197 658.868Z" fill="#C55A11" fill-rule="nonzero" fill-opacity="1" transform="matrix(1 0 0 -1.00234 242.481 1145.2)"/><path d="M48.4622 668.488C46.4656 666.673 47.0101 658.868 49.0067 658.868 49.9142 658.868 50.2772 660.138 49.7327 661.591 49.0067 663.043 49.5512 665.584 50.8218 667.036 52.9998 669.758 50.8218 671.029 48.4622 668.488Z" fill="#C55A11" fill-rule="nonzero" fill-opacity="1" transform="matrix(1 0 0 -1.00234 242.481 1145.2)"/><path d="M70.7875 667.943C70.7875 667.036 71.8765 666.128 73.147 666.128 74.5991 666.128 76.5957 664.313 77.6847 662.135 79.1367 659.049 79.6813 658.686 79.6813 661.046 79.8628 664.313 75.3251 669.758 72.421 669.758 71.5135 669.758 70.7875 669.032 70.7875 667.943Z" fill="#C55A11" fill-rule="nonzero" fill-opacity="1" transform="matrix(1 0 0 -1.00234 242.481 1145.2)"/><path d="M159.726 666.128C157.729 664.132 156.458 661.409 157.184 660.32 158.273 658.686 158.818 658.868 159.363 660.683 159.726 662.135 161.359 664.495 162.993 665.584 164.626 666.854 165.352 668.306 164.808 669.032 164.082 669.577 161.904 668.306 159.726 666.128Z" fill="#C55A11" fill-rule="nonzero" fill-opacity="1" transform="matrix(1 0 0 -1.00234 242.481 1145.2)"/><path d="M184.773 667.58C186.044 666.31 186.951 663.406 187.133 660.864 187.133 656.145 187.133 656.145 189.13 660.138 191.126 664.495 188.585 669.758 184.592 669.758 183.321 669.758 183.321 669.032 184.773 667.58Z" fill="#C55A11" fill-rule="nonzero" fill-opacity="1" transform="matrix(1 0 0 -1.00234 242.481 1145.2)"/><path d="M57.356 660.32C55.1779 657.416 54.4519 651.789 54.4519 640.173 54.4519 622.567 57.1745 613.128 63.5272 609.861 67.5203 607.683 78.0477 608.046 84.0374 610.587 86.9415 612.039 87.123 607.139 87.123 524.735 87.123 432.53 87.486 428.899 95.2908 425.814 101.462 423.636 108.359 424.725 112.171 428.899 115.983 432.893 116.164 434.526 116.527 488.252 116.89 530.361 117.616 543.43 119.431 544.156 121.065 544.7 121.609 533.266 121.609 490.975 121.609 434.708 122.335 428.718 129.777 425.814 135.948 423.454 142.845 424.725 146.657 428.899 150.65 433.074 150.65 433.256 150.65 522.557L150.65 612.039 154.825 610.769C157.003 610.043 162.085 608.954 166.26 608.591 172.794 607.865 174.246 608.409 178.421 613.31 184.41 620.389 185.862 628.375 184.592 645.618 183.503 660.864 181.506 664.313 174.065 664.313 166.623 664.313 164.626 659.412 166.078 643.44 167.712 626.741 165.715 625.289 155.188 635.091L147.02 642.532 119.794 642.532 92.5682 642.532 84.5819 635.272C72.9655 624.563 71.8765 625.289 73.147 643.258 74.0546 656.327 73.6916 658.868 70.969 661.409 66.4313 665.584 60.6231 665.039 57.356 660.32Z" fill="#C55A11" fill-rule="nonzero" fill-opacity="1" transform="matrix(1 0 0 -1.00234 242.481 1145.2)"/><path d="M982.312 656.69C981.405 655.419 979.953 652.334 979.227 649.793 975.052 635.817 966.884 615.306 965.432 615.306 964.706 615.306 965.614 619.118 967.429 623.656 969.425 628.193 971.059 632.912 971.059 634.183 971.059 642.169 952.727 645.799 946.555 638.902 940.747 632.549 946.011 602.782 954.36 594.433 963.617 584.995 974.507 590.258 983.583 608.228L989.028 619.118 994.473 608.409C1009.72 578.098 1029.14 585.721 1033.68 623.837 1034.77 633.638 1034.4 635.454 1031.14 638.721 1026.06 643.803 1015.35 643.803 1009.9 638.721L1005.91 634.909 1009.36 626.741C1011.17 622.385 1012.81 617.666 1012.81 616.577 1012.62 612.765 1007.9 622.93 1002.1 639.81 998.829 648.704 995.381 656.69 994.11 657.416 990.661 659.594 984.49 659.049 982.312 656.69Z" fill="#C55A11" fill-rule="nonzero" fill-opacity="1" transform="matrix(1 0 0 -1.00234 242.481 1145.2)"/><path d="M985.035 606.231C979.59 594.433 971.966 588.08 963.617 588.08L956.538 588.08 956.538 513.844C956.538 437.612 957.083 430.17 963.798 426.54 968.699 423.999 977.048 424.362 981.223 427.266 984.49 429.807 984.672 433.074 985.579 486.618 986.305 529.635 987.031 543.43 988.846 544.156 990.48 544.7 991.024 533.266 991.024 490.975 991.024 434.708 991.75 428.718 999.192 425.814 1005.36 423.454 1012.26 424.725 1016.07 428.899 1020.07 433.074 1020.07 433.619 1020.07 510.577L1020.07 588.08 1014.08 588.08C1005.91 588.08 1001.01 592.074 994.473 603.69 991.387 609.135 988.665 613.491 988.665 613.491 988.483 613.491 986.85 610.224 985.035 606.231Z" fill="#C55A11" fill-rule="nonzero" fill-opacity="1" transform="matrix(1 0 0 -1.00234 242.481 1145.2)"/><path d="M561.944 388.605C561.217 387.516 559.765 386.971 558.858 387.516 557.95 388.242 557.224 386.971 557.224 384.975 557.224 379.711 560.31 378.622 561.581 383.523 562.67 386.971 562.851 387.153 564.485 384.43 566.3 381.345 573.56 381.889 573.56 385.156 573.56 386.245 572.289 386.427 570.656 385.882 568.841 385.156 566.663 386.064 565.392 387.697 563.94 389.876 562.851 390.239 561.944 388.605Z" fill="#C55A11" fill-rule="nonzero" fill-opacity="1" transform="matrix(1 0 0 -1.00234 242.481 1145.2)"/><path d="M579.913 388.423C579.368 387.516 579.731 386.608 580.639 386.608 581.728 386.608 582.635 387.516 582.635 388.423 582.635 389.513 582.272 390.239 581.909 390.239 581.365 390.239 580.457 389.513 579.913 388.423Z" fill="#C55A11" fill-rule="nonzero" fill-opacity="1" transform="matrix(1 0 0 -1.00234 242.481 1145.2)"/><path d="M743.268 382.615C743.994 379.348 745.446 375.355 746.354 373.903 747.624 371.906 747.806 372.451 747.08 375.718 746.535 378.259 745.991 382.071 745.991 384.43 745.991 386.608 745.083 388.423 743.994 388.423 742.724 388.423 742.542 386.245 743.268 382.615Z" fill="#C55A11" fill-rule="nonzero" fill-opacity="1" transform="matrix(1 0 0 -1.00234 242.481 1145.2)"/><path d="M551.779 383.886C551.779 381.889 552.687 378.985 553.594 377.533 555.046 375.355 555.409 375.355 555.409 378.441 555.409 380.437 554.502 383.341 553.594 384.793 552.142 386.971 551.779 386.971 551.779 383.886Z" fill="#C55A11" fill-rule="nonzero" fill-opacity="1" transform="matrix(1 0 0 -1.00234 242.481 1145.2)"/><path d="M755.066 383.16C755.066 378.441 751.981 378.078 750.71 382.615 750.166 384.43 749.984 383.704 750.166 381.163 750.347 378.078 751.618 376.626 753.796 376.807 757.789 377.17 757.789 372.632 753.796 371.543 751.255 370.817 751.618 370.636 754.703 370.454 758.152 370.273 758.696 371.18 758.696 377.352 758.696 381.345 757.97 385.156 756.881 385.701 755.974 386.245 755.066 385.156 755.066 383.16Z" fill="#C55A11" fill-rule="nonzero" fill-opacity="1" transform="matrix(1 0 0 -1.00234 242.481 1145.2)"/><path d="M323.081 378.804C323.081 372.814 319.996 372.269 318.907 378.078 318.181 381.345 317.999 381.163 317.818 376.807 317.636 372.451 318.181 371.906 321.266 372.632 323.626 373.177 324.896 372.632 324.896 370.999 324.896 369.547 323.444 368.458 321.811 368.458 319.451 368.458 319.27 367.913 320.903 366.28 324.533 362.65 328.889 368.095 327.437 374.629 325.985 382.252 323.081 384.975 323.081 378.804Z" fill="#C55A11" fill-rule="nonzero" fill-opacity="1" transform="matrix(1 0 0 -1.00234 242.481 1145.2)"/><path d="M536.714 381.708C534.718 379.893 535.262 372.451 537.44 370.999 538.529 370.454 540.707 371.362 542.341 372.995 545.063 375.9 545.063 376.081 542.522 375.174 540.344 374.448 539.8 375.174 540.526 378.622 541.252 382.797 539.255 384.43 536.714 381.708Z" fill="#C55A11" fill-rule="nonzero" fill-opacity="1" transform="matrix(1 0 0 -1.00234 242.481 1145.2)"/><path d="M727.114 376.263C728.203 369.547 731.47 363.557 731.47 368.276 731.47 369.728 732.741 370.091 735.101 369.365 737.097 368.639 738.731 369.002 738.731 370.091 738.731 371.18 737.46 372.088 735.827 372.088 733.83 372.088 733.285 373.177 734.193 376.263 735.282 380.074 735.282 380.074 732.559 376.807 729.655 373.358 729.655 373.358 729.655 376.989 729.655 379.167 728.748 381.526 727.659 382.071 726.388 382.978 726.207 381.163 727.114 376.263Z" fill="#C55A11" fill-rule="nonzero" fill-opacity="1" transform="matrix(1 0 0 -1.00234 242.481 1145.2)"/><path d="M738.912 378.441C738.912 376.444 739.638 373.54 740.546 372.088 742.179 369.728 742.361 369.728 742.179 372.088 742.179 373.54 741.453 376.444 740.546 378.441L738.912 382.071 738.912 378.441Z" fill="#C55A11" fill-rule="nonzero" fill-opacity="1" transform="matrix(1 0 0 -1.00234 242.481 1145.2)"/><path d="M308.379 374.992C306.564 371.362 306.564 369.728 308.198 368.095 309.287 367.006 310.92 366.643 311.646 367.369 312.372 368.095 312.009 369.184 310.92 369.91 309.468 370.817 309.287 372.269 310.376 373.903 311.828 376.263 312.191 376.263 312.191 373.721 312.191 372.088 313.28 370.273 314.732 369.728 317.818 368.458 316.547 374.629 312.917 377.715 310.92 379.348 310.013 378.622 308.379 374.992Z" fill="#C55A11" fill-rule="nonzero" fill-opacity="1" transform="matrix(1 0 0 -1.00234 242.481 1145.2)"/><path d="M333.972 377.352C333.972 376.444 334.879 376.081 335.787 376.626 336.876 377.17 337.602 378.078 337.602 378.622 337.602 378.985 336.876 379.348 335.787 379.348 334.879 379.348 333.972 378.441 333.972 377.352Z" fill="#C55A11" fill-rule="nonzero" fill-opacity="1" transform="matrix(1 0 0 -1.00234 242.481 1145.2)"/><path d="M940.747 374.629C937.843 370.091 937.843 369.728 940.929 367.369 946.918 363.194 957.627 371.543 953.816 377.533 951.638 381.163 944.014 379.348 940.747 374.629ZM951.093 374.085C951.093 370.999 947.826 368.458 943.651 368.458 941.292 368.458 941.655 372.814 944.196 375.355 947.463 378.622 951.093 377.896 951.093 374.085Z" fill="#C55A11" fill-rule="nonzero" fill-opacity="1" transform="matrix(1 0 0 -1.00234 242.481 1145.2)"/><path d="M527.276 375.174C526.187 372.632 525.461 372.451 523.464 374.085 521.468 375.718 520.923 375.537 520.923 373.903 520.923 372.632 519.653 372.088 518.019 372.814 515.841 373.721 515.478 372.995 516.385 369.728 518.382 363.739 520.923 361.561 520.923 366.28 520.923 370.636 523.646 371.725 525.098 368.095 525.824 366.643 526.731 367.55 527.457 370.091 528.728 374.266 528.909 374.266 531.269 371.18 532.539 369.184 533.629 368.639 533.629 369.547 533.629 370.636 532.539 372.995 531.087 374.992 528.546 378.259 528.365 378.259 527.276 375.174Z" fill="#C55A11" fill-rule="nonzero" fill-opacity="1" transform="matrix(1 0 0 -1.00234 242.481 1145.2)"/><path d="M955.994 371.18C952.001 362.831 952.001 362.468 957.264 365.735 961.439 368.458 961.802 368.458 962.528 365.372 963.072 363.376 963.435 364.102 963.617 367.369 963.798 370.999 963.072 372.269 961.257 371.543 959.442 370.817 959.079 371.543 959.624 374.085 961.076 379.53 959.261 378.078 955.994 371.18Z" fill="#C55A11" fill-rule="nonzero" fill-opacity="1" transform="matrix(1 0 0 -1.00234 242.481 1145.2)"/><path d="M301.663 372.088C300.574 369.547 299.667 368.639 299.667 369.91 299.304 373.903 295.855 372.269 295.855 368.095 295.674 364.102 295.674 364.102 293.133 367.369 289.503 372.269 288.051 370.091 291.499 365.191 294.585 360.653 297.67 359.927 297.67 363.92 297.67 365.554 298.759 366.098 300.393 365.554 303.479 364.283 305.657 368.458 304.386 373.358 303.842 376.081 303.297 375.9 301.663 372.088Z" fill="#C55A11" fill-rule="nonzero" fill-opacity="1" transform="matrix(1 0 0 -1.00234 242.481 1145.2)"/><path d="M719.491 373.177C717.857 369.002 719.491 363.92 722.214 363.92 723.666 363.92 725.118 365.009 725.662 366.28 726.025 367.55 725.299 368.095 723.484 367.369 721.488 366.643 720.58 367.187 720.58 369.184 720.58 370.817 721.488 372.088 722.395 372.088 723.484 372.088 724.21 372.995 724.21 373.903 724.21 376.626 720.58 376.081 719.491 373.177Z" fill="#C55A11" fill-rule="nonzero" fill-opacity="1" transform="matrix(1 0 0 -1.00234 242.481 1145.2)"/><path d="M968.336 369.002C965.432 362.105 965.977 359.019 969.607 362.65 972.148 365.191 975.415 365.554 973.781 363.194 973.237 362.287 973.6 361.016 974.689 360.29 975.778 359.564 976.504 361.198 976.504 363.739 976.504 366.643 975.415 368.458 973.963 368.458 972.329 368.458 971.785 369.728 972.329 372.088 973.963 378.078 971.24 376.081 968.336 369.002Z" fill="#C55A11" fill-rule="nonzero" fill-opacity="1" transform="matrix(1 0 0 -1.00234 242.481 1145.2)"/><path d="M507.129 369.547C504.225 362.105 510.214 356.478 513.663 363.013 515.296 365.917 515.115 367.55 513.481 369.547 510.759 372.814 508.399 372.814 507.129 369.547ZM511.848 365.735C511.848 364.283 511.122 363.013 510.033 363.013 509.125 363.013 508.218 364.283 508.218 365.735 508.218 367.187 509.125 368.458 510.033 368.458 511.122 368.458 511.848 367.187 511.848 365.735Z" fill="#C55A11" fill-rule="nonzero" fill-opacity="1" transform="matrix(1 0 0 -1.00234 242.481 1145.2)"/><path d="M139.76 369.365C139.76 368.821 141.393 366.643 143.39 364.465 147.383 360.109 148.109 361.198 145.205 366.824 143.39 369.91 139.76 371.725 139.76 369.365Z" fill="#C55A11" fill-rule="nonzero" fill-opacity="1" transform="matrix(1 0 0 -1.00234 242.481 1145.2)"/><path d="M157.91 368.458C157.91 367.55 158.818 366.643 159.907 366.643 160.815 366.643 161.178 367.55 160.633 368.458 160.089 369.547 159.181 370.273 158.637 370.273 158.273 370.273 157.91 369.547 157.91 368.458Z" fill="#C55A11" fill-rule="nonzero" fill-opacity="1" transform="matrix(1 0 0 -1.00234 242.481 1145.2)"/><path d="M490.793 364.102C491.338 360.109 492.608 356.115 493.697 355.026 494.968 353.756 495.149 355.026 494.423 359.382 492.608 368.821 489.704 372.814 490.793 364.102Z" fill="#C55A11" fill-rule="nonzero" fill-opacity="1" transform="matrix(1 0 0 -1.00234 242.481 1145.2)"/><path d="M712.594 366.461C711.323 362.831 710.96 362.65 710.234 365.372 709.871 367.006 708.782 368.458 707.875 368.458 706.967 368.458 706.604 367.006 707.33 365.372 709.327 359.745 709.871 359.201 712.231 361.016 713.501 362.105 715.135 362.468 715.679 361.742 717.313 360.29 717.131 363.013 715.316 367.369 714.046 370.817 713.864 370.636 712.594 366.461Z" fill="#C55A11" fill-rule="nonzero" fill-opacity="1" transform="matrix(1 0 0 -1.00234 242.481 1145.2)"/><path d="M134.859 365.917C135.585 364.102 136.13 361.924 136.13 361.016 136.13 360.109 137.037 359.382 138.126 359.382 140.849 359.382 139.397 367.187 136.311 368.095 134.496 368.639 134.133 368.095 134.859 365.917Z" fill="#C55A11" fill-rule="nonzero" fill-opacity="1" transform="matrix(1 0 0 -1.00234 242.481 1145.2)"/><path d="M498.598 367.187C496.964 365.735 496.964 358.475 498.416 357.023 499.868 355.571 504.588 357.567 504.588 359.564 504.588 360.29 503.317 360.653 501.865 360.109 500.231 359.382 499.142 360.109 499.142 361.924 499.142 363.557 500.05 364.828 500.957 364.828 502.046 364.828 502.772 365.735 502.772 366.643 502.772 368.639 500.413 369.002 498.598 367.187Z" fill="#C55A11" fill-rule="nonzero" fill-opacity="1" transform="matrix(1 0 0 -1.00234 242.481 1145.2)"/><path d="M695.351 364.828C695.351 362.287 695.895 359.382 696.621 358.112 698.073 355.752 706.06 356.841 706.06 359.382 706.06 360.29 704.607 360.472 702.611 359.927 700.07 359.382 698.799 360.472 697.347 364.283 695.532 369.365 695.532 369.365 695.351 364.828Z" fill="#C55A11" fill-rule="nonzero" fill-opacity="1" transform="matrix(1 0 0 -1.00234 242.481 1145.2)"/><path d="M117.798 363.557C117.253 355.389 119.794 350.67 123.424 353.03 125.058 354.119 124.876 354.845 122.698 356.115 120.52 357.386 120.157 358.475 121.246 359.927 122.517 361.379 122.154 362.831 120.52 364.465 118.342 366.461 117.979 366.28 117.798 363.557Z" fill="#C55A11" fill-rule="nonzero" fill-opacity="1" transform="matrix(1 0 0 -1.00234 242.481 1145.2)"/><path d="M126.328 363.92C125.058 360.29 126.873 355.752 129.777 355.752 133.226 355.752 134.315 358.112 133.044 362.65 131.955 367.187 127.962 367.913 126.328 363.92ZM132.5 359.019C132.5 355.571 129.596 358.112 129.414 361.561 129.051 364.828 129.414 365.191 130.685 363.013 131.592 361.561 132.5 359.745 132.5 359.019Z" fill="#C55A11" fill-rule="nonzero" fill-opacity="1" transform="matrix(1 0 0 -1.00234 242.481 1145.2)"/><path d="M274.801 364.465C274.075 363.376 274.801 361.561 276.434 360.29 278.612 358.656 278.975 357.749 277.342 356.115 275.89 354.663 275.89 353.937 277.16 353.937 278.249 353.937 280.064 355.208 281.335 356.66 283.15 358.838 282.968 359.564 280.609 360.472 278.794 361.198 277.886 362.831 278.431 364.102 279.52 367.187 276.616 367.55 274.801 364.465Z" fill="#C55A11" fill-rule="nonzero" fill-opacity="1" transform="matrix(1 0 0 -1.00234 242.481 1145.2)"/><path d="M251.931 360.29C244.307 355.934 240.859 353.211 245.397 354.845 247.756 355.752 248.845 354.845 249.753 351.396 250.297 348.855 251.568 346.677 252.294 346.677 253.201 346.677 253.201 349.037 252.294 351.941 251.205 356.115 251.386 357.567 253.564 358.293 257.376 359.927 257.376 359.927 258.828 353.574L260.099 347.585 262.458 353.03C264.273 357.386 264.999 357.93 265.907 355.389 266.633 353.756 268.629 352.485 270.444 352.667 273.167 352.848 273.712 353.756 272.804 357.567 271.352 364.102 270.444 364.465 270.444 358.293 270.263 353.574 270.081 353.393 267.903 356.297 266.451 358.112 264.273 359.019 262.64 358.293 260.825 357.749 259.554 358.475 259.191 360.653 258.646 363.92 258.465 363.92 251.931 360.29Z" fill="#C55A11" fill-rule="nonzero" fill-opacity="1" transform="matrix(1 0 0 -1.00234 242.481 1145.2)"/><path d="M476.999 357.204C477.906 351.396 477.725 351.215 474.276 354.482 470.646 357.567 470.464 357.567 469.557 353.756L468.468 349.763 464.838 354.119C459.937 359.927 459.937 356.841 465.019 349.944L468.831 344.499 471.009 348.492C472.461 351.215 473.731 351.941 474.457 350.489 476.999 346.314 479.177 348.674 479.177 355.752 479.177 359.745 478.451 363.013 477.725 363.013 476.817 363.013 476.636 360.29 476.999 357.204Z" fill="#C55A11" fill-rule="nonzero" fill-opacity="1" transform="matrix(1 0 0 -1.00234 242.481 1145.2)"/><path d="M483.17 360.835C480.266 357.93 480.447 354.845 483.533 352.304 485.348 350.67 486.437 350.852 488.252 353.03 490.249 355.389 490.067 355.571 487.163 354.663 484.259 353.574 484.077 353.756 486.074 355.934 490.612 360.835 487.889 365.554 483.17 360.835Z" fill="#C55A11" fill-rule="nonzero" fill-opacity="1" transform="matrix(1 0 0 -1.00234 242.481 1145.2)"/><path d="M98.1949 358.112C98.0134 353.756 101.281 343.954 102.551 345.225 103.096 345.588 102.37 349.581 100.918 354.119 99.284 359.019 98.3764 360.653 98.1949 358.112Z" fill="#C55A11" fill-rule="nonzero" fill-opacity="1" transform="matrix(1 0 0 -1.00234 242.481 1145.2)"/><path d="M110.174 359.927C107.815 357.749 108.904 353.937 111.808 353.937 114.349 353.937 114.53 353.574 112.352 350.852 110.174 348.311 110.174 347.948 112.534 348.855 116.527 350.126 117.072 355.752 113.441 355.752 110.9 355.752 110.719 356.297 112.534 358.475 114.712 361.016 112.534 362.468 110.174 359.927Z" fill="#C55A11" fill-rule="nonzero" fill-opacity="1" transform="matrix(1 0 0 -1.00234 242.481 1145.2)"/><path d="M104.003 355.026C104.729 353.211 105.274 350.67 105.274 349.218 105.274 347.766 106 346.677 106.907 346.677 108.904 346.677 107.089 355.571 104.729 357.023 103.459 357.749 103.277 357.023 104.003 355.026Z" fill="#C55A11" fill-rule="nonzero" fill-opacity="1" transform="matrix(1 0 0 -1.00234 242.481 1145.2)"/><path d="M325.441 351.033C312.009 344.317 307.472 323.444 316.91 312.191 326.53 300.756 339.598 298.215 350.307 305.475 359.564 311.646 363.376 317.818 363.376 327.074 363.739 347.222 343.591 359.927 325.441 351.033Z" fill="#C55A11" fill-rule="nonzero" fill-opacity="1" transform="matrix(1 0 0 -1.00234 242.481 1145.2)"/><path d="M538.166 350.489C528.728 344.862 525.824 339.961 525.098 329.797 523.464 308.742 541.978 296.037 561.581 304.568 568.296 307.653 570.837 310.013 573.56 316.184 577.916 325.985 577.916 329.252 573.56 338.872 567.389 352.667 550.509 358.112 538.166 350.489Z" fill="#C55A11" fill-rule="nonzero" fill-opacity="1" transform="matrix(1 0 0 -1.00234 242.481 1145.2)"/><path d="M748.351 351.033C738.912 346.314 734.556 337.42 735.464 325.622 736.19 317.818 737.46 314.55 741.453 310.376 761.237 289.684 795.179 310.376 785.015 336.876 783.381 341.413 779.57 346.496 776.484 348.674 769.224 353.937 755.974 355.026 748.351 351.033Z" fill="#C55A11" fill-rule="nonzero" fill-opacity="1" transform="matrix(1 0 0 -1.00234 242.481 1145.2)"/><path d="M930.22 349.581C920.418 345.406 914.792 336.876 914.792 326.53 914.792 321.448 916.062 315.095 917.514 312.191 923.323 300.937 940.929 296.037 953.09 302.208 965.977 308.924 970.151 330.16 960.713 341.413 952.364 351.215 941.11 354.3 930.22 349.581Z" fill="#C55A11" fill-rule="nonzero" fill-opacity="1" transform="matrix(1 0 0 -1.00234 242.481 1145.2)"/><path d="M79.4998 343.954C78.9552 341.413 79.1367 338.872 79.8628 338.509 80.5888 337.965 81.6778 340.143 82.0408 343.047 82.9484 349.581 80.5888 350.307 79.4998 343.954Z" fill="#C55A11" fill-rule="nonzero" fill-opacity="1" transform="matrix(1 0 0 -1.00234 242.481 1145.2)"/><path d="M74.4176 343.41C74.4176 341.232 73.6916 339.417 72.6025 339.417 71.695 339.417 70.7875 340.687 70.7875 342.321 70.7875 344.862 70.2429 344.862 68.0649 343.047 66.4313 341.776 64.7978 341.232 64.0717 341.776 62.6197 343.41 58.082 339.598 58.082 336.876 58.082 335.787 58.808 333.79 59.7156 332.338 62.0752 328.708 67.1573 332.883 67.1573 338.328 67.1573 341.958 67.3388 341.958 70.7875 337.602L74.2361 333.064 76.2327 338.328C77.5032 341.958 77.6847 344.136 76.2327 345.588 74.9621 346.859 74.4176 346.133 74.4176 343.41ZM65.3423 336.694C65.3423 335.242 64.6162 333.972 63.5272 333.972 62.6197 333.972 61.7121 335.242 61.7121 336.694 61.7121 338.146 62.6197 339.417 63.5272 339.417 64.6162 339.417 65.3423 338.146 65.3423 336.694Z" fill="#C55A11" fill-rule="nonzero" fill-opacity="1" transform="matrix(1 0 0 -1.00234 242.481 1145.2)"/><path d="M88.3936 341.05C87.6675 338.146 87.8491 337.783 90.0271 339.598 91.2977 340.687 92.0237 342.321 91.4792 343.228 90.0271 345.588 89.4826 345.225 88.3936 341.05Z" fill="#C55A11" fill-rule="nonzero" fill-opacity="1" transform="matrix(1 0 0 -1.00234 242.481 1145.2)"/><path d="M53.1813 338.146C53.9074 331.068 53.3629 330.886 47.7362 336.15 43.743 339.78 43.5615 339.78 43.743 336.513 43.9245 334.698 44.6506 331.068 45.3766 328.526 46.8286 323.989 46.8286 323.989 47.0101 329.252 47.1916 334.335 47.3731 334.335 50.4588 331.612 52.2738 329.797 54.4519 328.526 54.9964 328.526 56.8115 328.526 56.267 335.968 54.2704 340.324 52.9998 343.228 52.6368 342.865 53.1813 338.146Z" fill="#C55A11" fill-rule="nonzero" fill-opacity="1" transform="matrix(1 0 0 -1.00234 242.481 1145.2)"/><path d="M122.698 333.972C110.9 330.341 102.007 316.002 104.185 304.023 108.722 280.609 143.027 275.345 153.191 296.581 159.907 310.739 154.643 325.985 141.03 332.157 132.681 335.968 130.503 336.15 122.698 333.972Z" fill="#C55A11" fill-rule="nonzero" fill-opacity="1" transform="matrix(1 0 0 -1.00234 242.481 1145.2)"/><path d="M968.155 325.804 968.336 315.821 979.227 311.102 990.117 306.383 973.781 298.215 957.446 289.866 935.484 290.955C910.617 291.862 905.716 290.592 897.549 281.153 887.929 269.718 873.953 233.417 865.785 198.205 863.789 189.674 863.97 188.222 866.693 185.136 871.049 180.236 877.764 180.599 881.032 185.681 882.302 187.859 884.48 194.212 885.751 199.657 889.018 213.996 900.09 248.301 901.905 249.571 902.812 249.934 904.083 247.575 904.627 243.944 905.353 240.496 910.436 226.883 915.881 213.996 934.394 169.89 937.843 145.024 930.764 103.277 928.223 88.2121 929.675 82.5854 936.573 78.9552 943.288 75.5066 950.004 76.9587 954.542 82.7669 962.891 93.2942 965.614 146.657 959.442 175.88 957.809 184.229 956.72 191.489 957.264 191.852 958.898 193.486 969.788 188.585 977.774 182.414 992.295 171.342 1006.27 150.832 1014.8 127.962 1020.25 113.26 1024.42 108.904 1032.95 108.904 1042.03 108.904 1048.02 115.983 1046.57 124.876 1045.48 132.5 1034.77 157.003 1026.96 170.253 1018.25 185.318 994.292 208.732 981.042 215.266 971.603 219.804 969.788 221.619 967.066 228.698 963.072 239.225 963.072 253.927 966.703 265.907L969.788 275.345 995.744 288.232C1020.25 300.574 1021.88 301.663 1021.88 306.564 1021.88 309.468 1020.79 312.554 1019.52 313.643 1017.71 315.276 970.514 335.787 968.699 335.787 968.336 335.787 968.155 331.249 968.155 325.804Z" fill="#C55A11" fill-rule="nonzero" fill-opacity="1" transform="matrix(1 0 0 -1.00234 242.481 1145.2)"/><path d="M87.486 291.136C70.4244 282.787 59.8971 265.907 55.1779 239.951 51.3663 218.534 51.7293 202.38 56.267 197.842 60.6231 193.486 63.3457 193.304 68.2464 196.753 71.1505 198.931 71.8765 202.38 72.784 220.893 74.0546 245.034 78.4107 259.554 86.5785 266.996L91.2977 271.352 90.2086 265.907C89.6641 263.003 87.3045 252.657 85.1265 243.218 81.3148 227.427 80.9518 220.53 80.4073 157.91 79.6813 84.0374 79.8628 82.9484 89.6641 78.4107 95.4723 75.5066 104.185 78.0477 107.089 83.6744 108.178 85.4895 108.904 107.815 108.904 135.222L108.904 183.503 112.897 180.78C118.342 176.787 121.791 177.15 136.674 182.414 143.753 184.955 149.924 186.407 150.65 185.681 151.376 184.955 155.006 174.065 158.637 161.541 165.534 137.219 169.89 130.685 178.965 130.685 185.136 130.685 192.397 138.308 192.397 144.842 192.397 152.102 174.428 212.725 171.16 216.356 168.801 219.078 167.893 219.078 160.27 215.629 155.732 213.633 145.568 210.91 137.763 209.458 118.161 206.01 112.534 208.551 112.534 220.349 112.534 226.157 117.435 229.968 127.054 231.421 131.592 232.147 138.671 233.417 142.664 234.506 150.106 236.321 150.287 236.503 152.284 247.03 154.643 258.828 156.458 259.372 159.726 249.39 161.541 243.944 161.359 242.492 158.818 239.588 155.006 235.414 142.482 231.058 129.232 229.424 118.524 228.153 114.349 225.068 114.349 218.897 114.349 210.003 123.787 208.369 145.205 213.451 183.321 222.345 190.582 247.938 163.174 276.797 154.099 286.417 149.743 288.595 146.113 285.146 145.024 284.239 141.212 282.605 137.582 281.516 128.143 278.431 117.072 281.698 109.448 289.684 102.551 297.126 99.8285 297.307 87.486 291.136Z" fill="#C55A11" fill-rule="nonzero" fill-opacity="1" transform="matrix(1 0 0 -1.00234 242.481 1145.2)"/><path d="M520.016 293.133C510.033 290.592 497.509 283.15 493.334 277.523 483.714 264.636 492.608 251.931 515.841 244.852 523.101 242.674 533.81 240.677 539.8 240.677 550.146 240.496 550.872 240.677 552.505 245.578 555.046 252.838 550.146 256.468 533.629 260.099 526.187 261.551 517.656 263.729 514.57 264.999 509.307 266.996 509.307 267.177 512.574 269.718 517.474 273.167 519.108 272.985 519.108 268.811 519.108 265.907 521.468 264.818 531.632 262.458 538.711 260.825 545.426 259.554 546.878 259.554 553.05 259.554 557.769 247.756 553.957 242.129 549.964 236.14 538.529 235.595 522.375 240.677 519.29 241.585 519.108 237.229 519.108 164.445 519.108 122.154 519.653 86.034 520.197 84.4004 522.012 80.0443 531.087 76.0511 536.351 77.3217 538.892 77.8662 542.522 80.5888 544.519 82.9484 547.968 87.3045 548.149 90.5716 548.149 141.756 548.149 188.767 548.512 196.027 550.872 196.027 553.231 196.027 553.594 188.767 553.594 141.393 553.594 109.993 554.32 85.4895 555.409 83.6744 558.313 78.0477 567.026 75.5066 572.834 78.4107 582.635 82.9484 582.635 82.7669 582.635 178.239L582.635 266.633 597.882 258.465C614.217 249.753 628.193 244.489 645.255 240.496 654.693 238.136 656.508 238.318 660.138 240.677 665.039 243.763 665.584 250.66 661.227 254.472 659.412 255.924 651.971 258.465 644.529 260.099 628.193 263.91 605.868 274.256 589.714 285.509L577.553 293.677 552.505 294.403C538.711 294.766 524.19 294.04 520.016 293.133Z" fill="#C55A11" fill-rule="nonzero" fill-opacity="1" transform="matrix(1 0 0 -1.00234 242.481 1145.2)"/><path d="M730.018 292.77C717.494 288.595 710.053 276.616 706.06 254.29 704.244 243.763 704.244 242.129 707.512 237.955 709.327 235.414 712.775 233.054 714.772 232.691 719.31 231.965 735.282 240.133 749.077 250.297L758.696 257.013 753.251 262.277C750.166 265.181 747.806 268.629 747.806 269.9 747.806 271.533 743.813 269.537 737.46 265.181 731.833 261.006 726.933 258.102 726.57 258.465 725.299 259.554 728.203 264.999 729.655 264.092 731.289 263.184 745.083 272.804 750.892 278.975 755.974 284.239 764.686 284.42 769.587 279.52 776.847 272.259 789.915 263.184 791.549 264.273 793.183 265.181 796.087 260.099 794.635 258.646 794.272 258.102 786.467 263.003 777.573 269.537 768.679 276.071 760.511 281.335 759.241 281.335 755.974 281.335 749.621 274.619 749.621 271.352 749.621 267.54 756.337 261.551 773.58 249.39 807.159 225.612 820.227 227.609 815.145 255.198 812.422 270.444 805.888 283.331 798.083 289.321 792.094 293.859 790.823 294.04 763.96 294.585 746.354 294.766 733.83 294.222 730.018 292.77Z" fill="#C55A11" fill-rule="nonzero" fill-opacity="1" transform="matrix(1 0 0 -1.00234 242.481 1145.2)"/><path d="M302.571 290.773C286.598 280.246 279.52 256.105 279.52 212.181 279.52 192.397 279.883 188.948 282.787 186.407 286.78 182.777 292.77 182.414 295.492 185.681 296.763 187.133 297.852 199.475 298.215 215.266 298.941 241.585 301.663 260.28 305.112 262.458 306.02 263.003 306.746 228.335 306.746 175.154 306.746 122.154 307.472 85.671 308.561 83.6744 311.465 78.0477 320.177 75.5066 325.985 78.4107 335.242 82.7669 335.787 85.4895 335.787 143.027 335.787 188.948 336.15 196.027 338.509 196.027 340.869 196.027 341.232 188.767 341.232 141.03 341.232 81.6778 341.595 79.6813 351.033 77.3217 356.841 75.8696 364.102 78.7737 366.643 83.3114 367.913 85.8525 368.458 115.983 368.458 176.969 368.458 226.52 369.184 266.814 369.91 266.451 395.502 253.383 416.012 244.489 428.173 241.585 442.149 238.136 443.964 237.955 447.776 240.496 453.221 244.126 453.221 251.386 447.958 254.835 445.598 256.105 438.156 258.646 431.077 260.28 414.923 264.273 391.328 275.345 376.626 285.872L365.009 294.04 336.331 294.04C311.646 294.04 306.927 293.496 302.571 290.773Z" fill="#C55A11" fill-rule="nonzero" fill-opacity="1" transform="matrix(1 0 0 -1.00234 242.481 1145.2)"/><path d="M750.529 248.664C745.628 244.671 738.731 240.133 735.645 238.318L729.655 235.051 729.655 160.996C729.655 117.072 730.381 85.4895 731.47 83.6744 734.375 78.0477 743.087 75.5066 748.895 78.4107 758.152 82.7669 758.696 85.4895 758.696 143.027 758.696 188.948 759.059 196.027 761.419 196.027 763.779 196.027 764.142 188.767 764.142 140.849 764.142 89.6641 764.323 85.4895 767.59 81.4963 772.128 75.8696 782.655 75.6881 788.282 81.3148 792.275 85.308 792.275 85.671 792.82 159.544L793.364 233.78 786.467 237.955C782.655 240.314 775.395 245.215 770.131 249.027 764.868 252.838 760.511 255.924 760.148 255.742 759.785 255.742 755.611 252.475 750.529 248.664Z" fill="#C55A11" fill-rule="nonzero" fill-opacity="1" transform="matrix(1 0 0 -1.00234 242.481 1145.2)"/><path d="M135.041 122.88C134.678 121.609 134.496 110.719 134.678 98.7394L135.222 77.1402 177.876 77.1402 220.53 77.1402 221.075 101.281 221.619 125.239 178.784 125.239C145.205 125.239 135.767 124.695 135.041 122.88Z" fill="#C55A11" fill-rule="nonzero" fill-opacity="1" transform="matrix(1 0 0 -1.00234 242.481 1145.2)"/><path d="M423.454 18.1506C423.273 11.0719 423.636 9.61983 424.543 13.4315 426.177 21.0547 429.807 21.4177 430.714 14.1575 431.44 8.34929 431.44 8.34929 431.622 15.2465 431.985 21.2362 431.622 22.1438 428.536 21.2362 425.814 20.6917 424.725 21.4177 424.18 24.3218 423.817 26.3184 423.454 23.5958 423.454 18.1506Z" fill="#C55A11" fill-rule="nonzero" fill-opacity="1" transform="matrix(1 0 0 -1.00234 242.481 1145.2)"/><path d="M532.358 18.1506C532.358 12.7054 532.539 9.61983 533.084 11.4349 533.992 14.702 533.992 14.702 537.622 11.4349 541.433 8.16778 541.433 8.16778 539.255 12.3424 537.44 15.791 537.44 17.2431 539.437 19.6027 541.252 21.9623 540.889 21.9623 537.803 19.4212 533.992 15.9726 533.81 15.9726 533.084 22.1438 532.721 25.7739 532.358 24.1403 532.358 18.1506Z" fill="#C55A11" fill-rule="nonzero" fill-opacity="1" transform="matrix(1 0 0 -1.00234 242.481 1145.2)"/><path d="M611.495 24.1403C609.317 21.4177 609.317 21.2362 612.221 22.3253 614.762 23.2328 615.306 22.5068 615.306 17.4246 615.306 13.976 614.217 10.7089 613.128 10.3459 611.858 9.80134 613.31 9.43833 616.214 9.43833 619.299 9.43833 620.57 9.80134 619.481 10.3459 618.029 10.8904 617.121 14.5205 617.121 19.2397 617.121 27.7705 615.488 29.2225 611.495 24.1403Z" fill="#C55A11" fill-rule="nonzero" fill-opacity="1" transform="matrix(1 0 0 -1.00234 242.481 1145.2)"/><path d="M625.652 26.1369C624.926 25.4109 624.382 23.9588 624.382 22.8698 624.382 21.7808 625.289 21.9623 626.56 23.2328 629.464 26.1369 631.642 25.9554 631.642 22.6883 631.642 21.2362 630.734 19.9657 629.464 19.9657 628.375 19.9657 628.738 18.8767 630.734 17.6061 632.549 16.1541 633.457 14.1575 632.731 13.0685 630.916 10.1644 626.741 10.3459 625.652 13.25 624.926 14.8835 624.563 14.8835 624.563 13.0685 624.382 9.61983 629.827 8.16778 632.549 11.0719 634.365 12.8869 634.728 15.6095 633.638 19.9657 632.549 25.9554 628.556 28.8595 625.652 26.1369Z" fill="#C55A11" fill-rule="nonzero" fill-opacity="1" transform="matrix(1 0 0 -1.00234 242.481 1145.2)"/><path d="M640.173 26.1369C639.447 25.4109 638.902 23.9588 638.902 22.8698 638.902 21.7808 639.81 21.9623 641.08 23.2328 643.984 26.1369 646.162 25.9554 646.162 22.6883 646.162 21.2362 645.255 19.9657 643.984 19.9657 642.895 19.9657 643.258 18.8767 645.255 17.6061 647.07 16.1541 647.978 14.1575 647.251 13.0685 645.436 10.1644 641.262 10.3459 640.173 13.25 639.447 14.8835 639.084 14.8835 639.084 13.0685 638.902 9.61983 644.347 8.16778 647.07 11.0719 648.885 12.8869 649.248 15.6095 648.159 19.9657 647.07 25.9554 643.077 28.8595 640.173 26.1369Z" fill="#C55A11" fill-rule="nonzero" fill-opacity="1" transform="matrix(1 0 0 -1.00234 242.481 1145.2)"/><path d="M654.693 25.9554C653.967 25.4109 653.423 23.9588 653.423 22.8698 653.423 21.7808 654.33 21.9623 655.601 23.2328 658.686 26.3184 660.683 25.9554 660.683 22.1438 660.683 20.1472 659.049 17.2431 657.053 15.428 651.971 10.7089 652.515 9.07532 659.412 9.25682 664.676 9.43833 664.858 9.61983 660.683 10.7089 657.416 11.6164 656.871 12.3424 658.505 13.4315 662.135 15.6095 664.132 22.3253 662.135 25.0479 660.138 27.4075 656.508 27.952 654.693 25.9554Z" fill="#C55A11" fill-rule="nonzero" fill-opacity="1" transform="matrix(1 0 0 -1.00234 242.481 1145.2)"/><path d="M669.758 25.5924C669.758 24.6849 669.214 22.6883 668.669 21.0547 667.943 18.8767 668.669 18.1506 671.392 18.1506 676.111 18.1506 676.656 11.6164 672.118 10.3459 669.395 9.61983 669.395 9.43833 671.755 9.25682 676.474 8.89381 679.741 13.976 677.018 17.2431 675.748 18.6952 673.57 19.9657 672.299 19.9657 669.032 19.9657 671.21 25.0479 674.84 25.9554 677.018 26.4999 676.656 26.8629 673.933 27.0444 671.573 27.0444 669.758 26.4999 669.758 25.5924Z" fill="#C55A11" fill-rule="nonzero" fill-opacity="1" transform="matrix(1 0 0 -1.00234 242.481 1145.2)"/><path d="M684.097 24.1403C681.919 21.4177 681.919 21.2362 684.823 22.3253 687.364 23.2328 687.909 22.5068 687.909 17.4246 687.909 13.976 686.82 10.7089 685.731 10.3459 684.46 9.80134 685.912 9.43833 688.816 9.43833 691.902 9.43833 693.173 9.80134 692.084 10.3459 690.631 10.8904 689.724 14.5205 689.724 19.2397 689.724 27.7705 688.09 29.2225 684.097 24.1403Z" fill="#C55A11" fill-rule="nonzero" fill-opacity="1" transform="matrix(1 0 0 -1.00234 242.481 1145.2)"/><path d="M698.255 25.9554C695.895 23.7773 696.984 18.3321 700.07 16.5171 702.792 15.065 702.792 14.5205 700.614 11.6164 698.799 9.61983 698.799 8.89381 700.251 9.80134 701.34 10.5274 703.7 13.613 705.333 16.5171 707.512 20.8732 707.693 22.6883 705.878 24.6849 703.7 27.4075 700.251 27.952 698.255 25.9554ZM705.152 21.7808C705.152 20.3287 703.7 18.8767 702.066 18.5136 699.707 18.1506 698.799 19.0582 698.799 21.7808 698.799 24.5034 699.707 25.4109 702.066 25.0479 703.7 24.6849 705.152 23.2328 705.152 21.7808Z" fill="#C55A11" fill-rule="nonzero" fill-opacity="1" transform="matrix(1 0 0 -1.00234 242.481 1145.2)"/><path d="M712.775 26.1369C712.049 25.4109 711.505 23.9588 711.505 22.8698 711.505 21.7808 712.412 21.9623 713.683 23.2328 716.587 26.1369 718.765 25.9554 718.765 22.6883 718.765 21.2362 717.857 19.9657 716.587 19.9657 715.498 19.9657 715.861 18.8767 717.857 17.6061 719.672 16.1541 720.58 14.1575 719.854 13.0685 718.039 10.1644 713.864 10.3459 712.775 13.25 712.049 14.8835 711.686 14.8835 711.686 13.0685 711.505 11.7979 712.775 10.3459 714.409 9.61983 718.22 8.16778 723.303 13.4315 721.306 16.6986 720.398 17.9691 719.854 20.6917 719.672 22.6883 719.672 26.3184 715.135 28.4965 712.775 26.1369Z" fill="#C55A11" fill-rule="nonzero" fill-opacity="1" transform="matrix(1 0 0 -1.00234 242.481 1145.2)"/><path d="M727.296 25.9554C725.662 23.0513 726.207 11.0719 727.84 9.98285 728.929 9.25682 731.289 9.25682 733.285 9.98285 738.912 11.7979 736.553 27.2259 730.563 27.2259 729.111 27.2259 727.659 26.6814 727.296 25.9554ZM733.285 22.5068C733.285 20.8732 732.378 19.9657 731.107 20.3287 727.84 21.4177 727.296 25.4109 730.381 25.4109 732.015 25.4109 733.285 24.1403 733.285 22.5068ZM734.193 14.5205C734.193 13.0685 732.741 11.6164 731.107 11.2534 728.748 10.8904 727.84 11.7979 727.84 14.5205 727.84 17.2431 728.748 18.1506 731.107 17.7876 732.741 17.4246 734.193 15.9726 734.193 14.5205Z" fill="#C55A11" fill-rule="nonzero" fill-opacity="1" transform="matrix(1 0 0 -1.00234 242.481 1145.2)"/><path d="M447.776 22.5068C446.142 20.6917 449.41 10.1644 451.951 9.43833 454.129 8.7123 454.31 9.07532 452.495 11.0719 449.591 14.1575 449.41 19.4212 452.314 20.3287 453.766 20.8732 453.403 21.4177 451.588 22.1438 449.954 22.8698 448.321 23.0513 447.776 22.5068Z" fill="#C55A11" fill-rule="nonzero" fill-opacity="1" transform="matrix(1 0 0 -1.00234 242.481 1145.2)"/><path d="M456.851 22.5068C455.218 20.6917 458.485 10.1644 461.026 9.43833 463.204 8.7123 463.386 9.07532 461.571 11.0719 458.666 14.1575 458.485 19.4212 461.389 20.3287 462.841 20.8732 462.478 21.4177 460.663 22.1438 459.029 22.8698 457.396 23.0513 456.851 22.5068Z" fill="#C55A11" fill-rule="nonzero" fill-opacity="1" transform="matrix(1 0 0 -1.00234 242.481 1145.2)"/><path d="M499.868 22.3253C496.964 21.4177 499.505 10.5274 502.772 9.43833 505.132 8.7123 505.132 8.89381 503.135 11.2534 500.776 14.339 500.776 18.3321 503.499 20.1472 505.314 21.5993 502.591 23.4143 499.868 22.3253Z" fill="#C55A11" fill-rule="nonzero" fill-opacity="1" transform="matrix(1 0 0 -1.00234 242.481 1145.2)"/><path d="M352.667 15.428C354.482 9.07532 357.567 6.71573 357.567 11.7979 357.567 13.25 356.841 14.5205 355.752 14.5205 354.845 14.5205 353.937 16.1541 353.937 18.1506 353.937 20.1472 353.211 21.7808 352.304 21.7808 351.396 21.7808 351.578 19.0582 352.667 15.428Z" fill="#C55A11" fill-rule="nonzero" fill-opacity="1" transform="matrix(1 0 0 -1.00234 242.481 1145.2)"/><path d="M358.475 19.9657C357.749 18.6952 357.93 17.2431 358.838 16.5171 359.745 15.9726 361.198 13.7945 361.924 11.7979 363.376 8.5308 363.739 8.89381 366.28 14.5205L369.002 20.8732 370.817 15.065C372.632 8.89381 375.718 6.89724 375.718 11.7979 375.718 13.25 374.992 14.5205 373.903 14.5205 372.995 14.5205 372.088 16.1541 372.088 18.1506 372.088 23.5958 366.824 22.5068 365.372 16.8801L364.283 11.7979 362.105 17.0616C360.653 20.6917 359.382 21.5993 358.475 19.9657Z" fill="#C55A11" fill-rule="nonzero" fill-opacity="1" transform="matrix(1 0 0 -1.00234 242.481 1145.2)"/><path d="M376.807 20.1472C375.9 18.8767 376.081 17.2431 376.989 16.5171 377.896 15.9726 379.348 13.7945 380.074 11.7979 381.526 8.5308 381.889 8.89381 384.43 14.5205L387.153 20.8732 388.968 15.065C391.146 7.98628 392.961 7.44176 394.595 13.25L395.865 17.2431 397.68 12.7054C399.132 9.07532 399.858 8.7123 400.947 10.8904 404.033 16.3356 405.304 22.3253 403.126 21.0547 402.036 20.3287 401.129 17.9691 400.947 15.791 400.766 12.3424 400.584 12.5239 398.406 17.2431 395.865 22.5068 395.684 22.5068 394.595 18.6952 393.143 13.4315 390.239 13.25 390.239 18.3321 390.239 23.5958 384.249 22.1438 382.978 16.3356L381.889 11.7979 380.074 17.2431C378.804 21.0547 377.715 21.7808 376.807 20.1472Z" fill="#C55A11" fill-rule="nonzero" fill-opacity="1" transform="matrix(1 0 0 -1.00234 242.481 1145.2)"/><path d="M412.745 19.6027C412.019 18.5136 412.745 16.6986 414.379 15.428 418.372 12.5239 418.191 11.4349 414.379 10.3459 411.475 9.61983 411.475 9.43833 414.197 9.25682 418.917 8.89381 420.187 12.8869 416.375 15.791 413.471 17.9691 413.29 18.5136 415.649 19.9657 417.283 21.0547 417.465 21.7808 416.194 21.7808 415.105 21.7808 413.471 20.8732 412.745 19.6027Z" fill="#C55A11" fill-rule="nonzero" fill-opacity="1" transform="matrix(1 0 0 -1.00234 242.481 1145.2)"/><path d="M436.341 16.5171C436.341 12.7054 437.612 9.98285 439.245 9.61983 441.06 9.07532 441.242 9.25682 439.79 10.3459 438.701 11.0719 437.43 14.339 436.886 17.2431 436.16 22.1438 435.978 22.1438 436.341 16.5171Z" fill="#C55A11" fill-rule="nonzero" fill-opacity="1" transform="matrix(1 0 0 -1.00234 242.481 1145.2)"/><path d="M443.42 15.428C443.42 11.4349 443.783 9.98285 444.146 12.3424 444.509 14.5205 444.509 17.7876 444.146 19.6027 443.601 21.2362 443.238 19.4212 443.42 15.428Z" fill="#C55A11" fill-rule="nonzero" fill-opacity="1" transform="matrix(1 0 0 -1.00234 242.481 1145.2)"/><path d="M467.197 19.2397C465.201 14.1575 467.197 9.98285 471.916 9.61983 475.91 9.43833 475.91 9.43833 472.461 10.3459 467.197 11.4349 467.016 14.5205 472.098 14.5205 474.639 14.5205 475.547 15.428 475.184 17.6061 474.457 21.7808 468.649 22.8698 467.197 19.2397ZM473.731 18.1506C473.731 17.2431 472.461 16.3356 471.009 16.3356 469.557 16.3356 468.286 17.2431 468.286 18.1506 468.286 19.2397 469.557 19.9657 471.009 19.9657 472.461 19.9657 473.731 19.2397 473.731 18.1506Z" fill="#C55A11" fill-rule="nonzero" fill-opacity="1" transform="matrix(1 0 0 -1.00234 242.481 1145.2)"/><path d="M479.358 14.5205C479.54 9.61983 479.903 9.25682 480.447 12.7054 480.81 15.2465 482.444 18.1506 484.077 19.4212 486.437 21.2362 486.437 21.5993 482.988 21.2362 479.903 21.0547 479.177 19.9657 479.358 14.5205Z" fill="#C55A11" fill-rule="nonzero" fill-opacity="1" transform="matrix(1 0 0 -1.00234 242.481 1145.2)"/><path d="M488.978 19.6027C488.252 18.5136 488.978 16.6986 490.612 15.428 494.605 12.5239 494.423 11.4349 490.612 10.3459 487.707 9.61983 487.707 9.43833 490.43 9.25682 495.149 8.89381 496.42 12.8869 492.608 15.791 489.704 17.9691 489.523 18.5136 491.882 19.9657 493.516 21.0547 493.697 21.7808 492.427 21.7808 491.338 21.7808 489.704 20.8732 488.978 19.6027Z" fill="#C55A11" fill-rule="nonzero" fill-opacity="1" transform="matrix(1 0 0 -1.00234 242.481 1145.2)"/><path d="M509.488 20.6917C507.129 18.3321 508.218 10.7089 511.122 9.61983 515.478 7.98628 520.379 13.7945 518.019 17.7876 515.841 21.2362 511.485 22.6883 509.488 20.6917ZM516.204 17.0616C517.656 13.4315 516.022 10.8904 512.574 10.8904 511.122 10.8904 510.033 12.7054 510.033 15.428 510.033 20.5102 514.389 21.5993 516.204 17.0616Z" fill="#C55A11" fill-rule="nonzero" fill-opacity="1" transform="matrix(1 0 0 -1.00234 242.481 1145.2)"/><path d="M521.649 19.2397C520.016 15.065 521.649 9.98285 524.553 9.80134 526.187 9.80134 526.368 9.98285 525.098 10.3459 521.468 11.6164 522.194 19.6027 526.005 20.5102 528.909 21.2362 528.909 21.4177 525.824 21.5993 524.009 21.5993 522.194 20.6917 521.649 19.2397Z" fill="#C55A11" fill-rule="nonzero" fill-opacity="1" transform="matrix(1 0 0 -1.00234 242.481 1145.2)"/><path d="M550.69 19.2397C549.057 15.065 550.69 9.98285 553.594 9.80134 555.228 9.80134 555.409 9.98285 554.139 10.3459 550.509 11.6164 551.235 19.6027 555.046 20.5102 557.95 21.2362 557.95 21.4177 554.865 21.5993 553.05 21.5993 551.235 20.6917 550.69 19.2397Z" fill="#C55A11" fill-rule="nonzero" fill-opacity="1" transform="matrix(1 0 0 -1.00234 242.481 1145.2)"/><path d="M562.125 20.6917C559.765 18.3321 560.854 10.7089 563.759 9.61983 568.115 7.98628 573.015 13.7945 570.656 17.7876 568.478 21.2362 564.122 22.6883 562.125 20.6917ZM568.659 17.7876C569.748 14.339 568.115 10.8904 565.211 10.8904 563.759 10.8904 562.67 12.7054 562.67 15.428 562.67 20.1472 567.207 21.7808 568.659 17.7876Z" fill="#C55A11" fill-rule="nonzero" fill-opacity="1" transform="matrix(1 0 0 -1.00234 242.481 1145.2)"/><path d="M574.104 15.428C574.104 11.4349 574.467 9.98285 574.83 12.3424 575.193 14.5205 575.193 17.7876 574.83 19.6027 574.286 21.2362 573.923 19.4212 574.104 15.428Z" fill="#C55A11" fill-rule="nonzero" fill-opacity="1" transform="matrix(1 0 0 -1.00234 242.481 1145.2)"/><path d="M578.461 20.3287C579.55 19.6027 580.82 16.5171 581.365 13.613L582.091 8.16778 582.454 14.1575C582.635 21.5993 586.628 21.2362 588.443 13.4315 589.532 8.5308 589.532 8.5308 589.351 14.5205 588.988 20.3287 588.625 20.8732 582.817 21.2362 579.368 21.4177 577.372 20.8732 578.461 20.3287Z" fill="#C55A11" fill-rule="nonzero" fill-opacity="1" transform="matrix(1 0 0 -1.00234 242.481 1145.2)"/></g></g></g></g></svg>