<?xml version="1.0" encoding="UTF-8"?>
<svg xmlns="http://www.w3.org/2000/svg" xmlns:xlink="http://www.w3.org/1999/xlink" width="541pt" height="541pt" viewBox="0 0 541 541" version="1.1">
<g id="surface1">
<path style=" stroke:none;fill-rule:nonzero;fill:rgb(100%,76.862745%,0%);fill-opacity:1;" d="M 376.824219 57.28125 C 333.875 57.28125 295.570312 114.667969 270.503906 204.367188 C 245.46875 114.667969 207.132812 57.28125 164.175781 57.28125 C 88.6875 57.28125 27.472656 248.203125 27.472656 483.71875 L 88.226562 483.71875 C 88.226562 265.015625 122.25 87.734375 164.175781 87.734375 C 206.132812 87.734375 240.121094 251.402344 240.121094 453.261719 L 300.875 453.261719 C 300.875 251.402344 334.894531 87.734375 376.820312 87.734375 C 418.773438 87.734375 452.769531 265.015625 452.769531 483.71875 L 513.527344 483.71875 C 513.53125 248.199219 452.316406 57.28125 376.824219 57.28125 Z M 376.824219 57.28125 "/>
</g>
</svg>
